<?xml version="1.0" encoding="UTF-8"?>
<svg version="1.1" xmlns="http://www.w3.org/2000/svg" width="512" height="512">
<path d="M0 0 C16.73943055 13.25065144 27.22814322 30.72965707 30.109375 51.921875 C30.23535231 53.42020087 30.33832937 54.92058528 30.421875 56.421875 C30.50115234 57.73865234 30.50115234 57.73865234 30.58203125 59.08203125 C31.15199186 77.4942372 25.50134585 93.77443897 14.421875 108.421875 C13.06307421 110.40628202 11.74375897 112.41261137 10.421875 114.421875 C11.30617187 114.66679687 12.19046875 114.91171875 13.1015625 115.1640625 C16.65492944 116.51016151 18.73454417 118.01665886 21.546875 120.546875 C22.37445313 121.27132812 23.20203125 121.99578125 24.0546875 122.7421875 C30.50506028 130.04409464 31.00241207 136.48066692 30.92980957 145.87109375 C30.93604953 147.11368454 30.9422895 148.35627533 30.94871855 149.63652039 C30.96187649 153.06939056 30.95719112 156.50138051 30.94477367 159.93419647 C30.935703 163.64252187 30.94970287 167.35077176 30.96069336 171.05908203 C30.97846173 178.31719555 30.97464614 185.57514344 30.9630428 192.8332634 C30.95400211 198.73309435 30.95278722 204.63287895 30.95713806 210.53271484 C30.95775099 211.37303096 30.95836393 212.21334707 30.95899543 213.07912731 C30.96027436 214.7863172 30.96157121 216.49350708 30.9628858 218.20069695 C30.97428666 234.20172436 30.96118564 250.20266004 30.93968433 266.20367241 C30.92181379 279.9274942 30.92491803 293.65118065 30.94335938 307.375 C30.96477481 323.31952644 30.97318807 339.26397253 30.96091032 355.20851135 C30.95963615 356.90935261 30.95837867 358.61019388 30.95713806 360.31103516 C30.95621241 361.56624104 30.95621241 361.56624104 30.95526806 362.84680462 C30.95181717 368.73822143 30.95763785 374.62958719 30.96705627 380.52099609 C30.97828512 387.70259103 30.97521766 394.88401113 30.9539333 402.06558609 C30.9434347 405.72841258 30.93928046 409.39094776 30.95252991 413.05377197 C30.96668424 417.02689744 30.94976147 420.99954791 30.92980957 424.97265625 C30.93873246 426.12674484 30.94765534 427.28083344 30.95684862 428.46989441 C30.88176222 436.17179767 29.67627702 441.3423047 24.7734375 447.48828125 C5.85644353 463.88015611 -21.15640582 466.85424398 -45.203125 466.734375 C-45.99937286 466.73188751 -46.79562073 466.72940002 -47.61599731 466.72683716 C-63.80357184 466.6486049 -78.22781179 465.0390492 -93.703125 460.109375 C-94.98401001 459.70223267 -94.98401001 459.70223267 -96.29077148 459.28686523 C-104.9024427 456.32710607 -114.31277635 451.10164518 -119.578125 443.421875 C-122.76902688 436.36356258 -123.00629129 429.65635903 -122.96580505 422.01098633 C-122.97119059 420.78458089 -122.97657613 419.55817545 -122.98212487 418.29460621 C-122.99391004 414.91167173 -122.99235515 411.52923315 -122.98495805 408.14631891 C-122.98021281 404.48980612 -122.99274808 400.8333453 -123.00297546 397.17684937 C-123.0201415 390.02217279 -123.02100816 382.86758411 -123.01576256 375.71289229 C-123.01171603 369.8965273 -123.01317014 364.08018822 -123.01851082 358.26382446 C-123.01925924 357.43503401 -123.02000766 356.60624355 -123.02077876 355.75233823 C-123.02231028 354.06850361 -123.02384863 352.384669 -123.02539373 350.70083439 C-123.03911047 334.92297685 -123.03368658 319.14516895 -123.02220852 303.36731255 C-123.01227391 288.94062843 -123.0252222 274.51407253 -123.04914271 260.08740819 C-123.07353791 245.26243377 -123.08314074 230.43751907 -123.07648998 215.61252499 C-123.0729991 207.29402372 -123.07522137 198.97562108 -123.09274101 190.65713501 C-123.10746813 183.57697663 -123.10809167 176.49698636 -123.0906701 169.41683125 C-123.08216243 165.80652338 -123.0800046 162.19651576 -123.09532166 158.5862236 C-123.11173803 154.66825023 -123.09701108 150.75073927 -123.07933044 146.83276367 C-123.08893545 145.69783383 -123.09854046 144.562904 -123.10843652 143.39358234 C-123.03447756 135.42527187 -121.70366097 129.03385396 -116.39453125 122.8984375 C-115.65074219 122.28742188 -114.90695313 121.67640625 -114.140625 121.046875 C-113.39941406 120.42039063 -112.65820312 119.79390625 -111.89453125 119.1484375 C-105.55323812 114.421875 -105.55323812 114.421875 -102.578125 114.421875 C-104.27904053 111.39802517 -106.14189228 108.72413325 -108.328125 106.046875 C-118.35501977 92.67768198 -124.15624781 74.12569792 -122.578125 57.421875 C-122.48402344 56.349375 -122.38992187 55.276875 -122.29296875 54.171875 C-119.8145578 32.61210595 -109.99465234 15.15394469 -93.69140625 0.8125 C-66.61701994 -19.97736753 -27.3637605 -20.43930168 0 0 Z M-89.578125 21.421875 C-100.53526781 34.78592157 -105.65750073 50.21296006 -104.578125 67.421875 C-102.51479445 83.87173046 -95.23140759 97.74415782 -82.32421875 108.2578125 C-68.8494717 117.75521918 -52.86186775 122.10673786 -36.453125 119.796875 C-20.06657456 116.4535788 -6.32033617 107.89868754 3.546875 94.359375 C12.24421638 80.81204165 14.47937925 64.17904215 11.73828125 48.515625 C7.7088949 33.40124634 -0.65357859 19.99257828 -14.2265625 11.6953125 C-38.97686276 -1.70767402 -69.48480141 -0.10668599 -89.578125 21.421875 Z M-94.578125 129.171875 C-95.609375 129.68234375 -96.640625 130.1928125 -97.703125 130.71875 C-100.47562362 132.36115407 -102.42656751 134.04274893 -104.578125 136.421875 C-101.72472566 143.07043602 -95.06701284 145.36776672 -88.703125 148.046875 C-60.30929185 158.22882648 -21.97474431 157.0325168 5.421875 144.421875 C8.01283231 142.89824926 10.12756634 141.37203736 12.421875 139.421875 C11.72001348 135.69964312 10.39608795 134.01987396 7.3671875 131.6640625 C3.08022875 128.92660692 -1.9012536 126.15042938 -7.08203125 126.67578125 C-9.71683793 127.46333692 -11.99733269 128.4988284 -14.453125 129.734375 C-33.01377257 138.22488399 -53.30027433 139.31428098 -72.578125 132.421875 C-75.84675286 130.93117709 -78.99677558 129.35883752 -82.125 127.59375 C-86.97009889 125.27921231 -90.10813978 126.91453247 -94.578125 129.171875 Z M-104.578125 160.421875 C-104.72396564 163.65056246 -104.81236606 166.87839865 -104.890625 170.109375 C-104.93251953 171.02138672 -104.97441406 171.93339844 -105.01757812 172.87304688 C-105.09825433 177.31023815 -105.11010627 179.66690158 -102.5 183.37109375 C-86.94278145 194.29026453 -66.79240112 195.61673143 -48.45214844 195.66210938 C-46.110956 195.67173995 -43.77067219 195.70280673 -41.4296875 195.734375 C-23.02795708 195.86396209 -3.96002089 193.27968386 11.421875 182.421875 C12.64972309 181.41627706 12.64972309 181.41627706 12.53540039 179.38061523 C12.53016357 178.50606689 12.52492676 177.63151855 12.51953125 176.73046875 C12.51630859 175.78623047 12.51308594 174.84199219 12.50976562 173.86914062 C12.50138672 172.87591797 12.49300781 171.88269531 12.484375 170.859375 C12.47986328 169.86228516 12.47535156 168.86519531 12.47070312 167.83789062 C12.45887507 165.36582651 12.44239349 162.89387982 12.421875 160.421875 C11.59961426 160.70212524 11.59961426 160.70212524 10.76074219 160.98803711 C5.43187967 162.7868404 0.08478819 164.45777937 -5.328125 165.984375 C-6.03710938 166.19255859 -6.74609375 166.40074219 -7.4765625 166.61523438 C-20.10689215 170.17448805 -32.61014611 170.82657974 -45.640625 170.796875 C-46.4562793 170.79699585 -47.27193359 170.7971167 -48.11230469 170.79724121 C-60.6539772 170.77079496 -72.48032168 169.9752453 -84.578125 166.421875 C-85.84269531 166.06351563 -87.10726562 165.70515625 -88.41015625 165.3359375 C-90.53318982 164.70212501 -92.64998018 164.04617383 -94.75390625 163.3515625 C-98.00666875 162.28080527 -101.28126737 161.34745242 -104.578125 160.421875 Z M-104.578125 202.421875 C-104.72352453 205.83809288 -104.81222225 209.25351491 -104.890625 212.671875 C-104.93251953 213.63996094 -104.97441406 214.60804688 -105.01757812 215.60546875 C-105.24620706 221.32489934 -105.24620706 221.32489934 -102.2734375 225.96875 C-100.93925781 226.68804687 -100.93925781 226.68804687 -99.578125 227.421875 C-98.44375 228.081875 -97.309375 228.741875 -96.140625 229.421875 C-68.86442006 242.46924987 -31.98116979 241.27561137 -3.578125 232.421875 C2.06919475 230.37263661 8.10516168 227.73858832 12.421875 223.421875 C12.50873103 221.86014755 12.52889719 220.29458156 12.51953125 218.73046875 C12.51630859 217.78623047 12.51308594 216.84199219 12.50976562 215.86914062 C12.50138672 214.87591797 12.49300781 213.88269531 12.484375 212.859375 C12.47986328 211.86228516 12.47535156 210.86519531 12.47070312 209.83789062 C12.45887507 207.36582651 12.44239349 204.89387982 12.421875 202.421875 C11.35453125 202.80859375 10.2871875 203.1953125 9.1875 203.59375 C4.30259279 205.32444736 -0.62373578 206.90257981 -5.578125 208.421875 C-6.29452148 208.64520508 -7.01091797 208.86853516 -7.74902344 209.09863281 C-31.07767151 215.99493755 -62.37229955 215.50161836 -85.578125 208.421875 C-86.44808105 208.1650293 -87.31803711 207.90818359 -88.21435547 207.64355469 C-93.70680558 206.00890846 -99.1517411 204.263408 -104.578125 202.421875 Z M-104.578125 244.421875 C-104.72352453 247.83809288 -104.81222225 251.25351491 -104.890625 254.671875 C-104.93251953 255.63996094 -104.97441406 256.60804688 -105.01757812 257.60546875 C-105.24433493 263.29581779 -105.24433493 263.29581779 -102.328125 267.9375 C-101.420625 268.42734375 -100.513125 268.9171875 -99.578125 269.421875 C-98.88074219 269.8653125 -98.18335938 270.30875 -97.46484375 270.765625 C-89.86873928 274.75931403 -81.91458559 276.68624099 -73.578125 278.421875 C-72.52496094 278.65003906 -71.47179687 278.87820313 -70.38671875 279.11328125 C-46.39349177 283.40743827 -13.36203697 283.02315646 7.796875 269.171875 C10.2131112 267.41689764 10.2131112 267.41689764 12.421875 265.421875 C12.50873103 263.86014755 12.52889719 262.29458156 12.51953125 260.73046875 C12.51630859 259.78623047 12.51308594 258.84199219 12.50976562 257.86914062 C12.50138672 256.87591797 12.49300781 255.88269531 12.484375 254.859375 C12.47986328 253.86228516 12.47535156 252.86519531 12.47070312 251.83789062 C12.45887507 249.36582651 12.44239349 246.89387982 12.421875 244.421875 C10.68164062 245.01935547 10.68164062 245.01935547 8.90625 245.62890625 C-24.25951598 256.92999226 -58.88503984 259.35626581 -92.578125 248.421875 C-93.82722656 248.02097656 -95.07632813 247.62007813 -96.36328125 247.20703125 C-99.11131802 246.30387531 -101.84880203 245.37981385 -104.578125 244.421875 Z M-104.578125 286.421875 C-104.81185607 289.79569307 -104.95296019 293.16742501 -105.078125 296.546875 C-105.14515625 297.49820312 -105.2121875 298.44953125 -105.28125 299.4296875 C-105.47346368 304.78835064 -105.47346368 304.78835064 -102.99462891 309.34594727 C-82.92153948 325.01645153 -48.51895945 324.49697375 -24.515625 321.734375 C-4.16137479 318.53316705 -4.16137479 318.53316705 12.421875 307.421875 C12.83367262 305.20213557 12.83367262 305.20213557 12.71484375 302.75390625 C12.70517578 301.86123047 12.69550781 300.96855469 12.68554688 300.04882812 C12.66041016 299.12005859 12.63527344 298.19128906 12.609375 297.234375 C12.59583984 296.29400391 12.58230469 295.35363281 12.56835938 294.38476562 C12.53300596 292.06322462 12.48366174 289.74283847 12.421875 287.421875 C8.45919718 287.98879825 4.95996705 288.84271048 1.234375 290.296875 C-33.03354403 303.02627695 -70.98237479 299.277201 -104.578125 286.421875 Z M-104.578125 329.421875 C-104.75312233 332.6503513 -104.85919118 335.87760426 -104.953125 339.109375 C-105.00339844 340.02138672 -105.05367187 340.93339844 -105.10546875 341.87304688 C-105.3048091 346.75517501 -105.3048091 346.75517501 -103.40258789 351.09204102 C-89.09403414 363.4970893 -64.64101862 364.65613962 -46.765625 364.671875 C-46.07726562 364.67254974 -45.38890625 364.67322449 -44.6796875 364.67391968 C-27.84967907 364.64776943 -12.25829891 362.77262644 3.421875 356.421875 C4.38738281 356.11894531 5.35289062 355.81601562 6.34765625 355.50390625 C9.31462065 354.22575829 10.51124408 353.01280419 12.421875 350.421875 C12.99280361 347.98729234 12.99280361 347.98729234 12.9609375 345.3671875 C12.98099854 344.42101562 13.00105957 343.47484375 13.02172852 342.5 C12.96643541 338.12859234 12.7615467 333.78012425 12.421875 329.421875 C11.80151367 329.6087085 11.18115234 329.79554199 10.54199219 329.98803711 C7.83597672 330.80163891 5.12914576 331.61246019 2.421875 332.421875 C1.28975586 332.76049561 1.28975586 332.76049561 0.13476562 333.10595703 C-2.01646958 333.74315959 -4.17164759 334.36516908 -6.328125 334.984375 C-7.37226563 335.29665039 -7.37226563 335.29665039 -8.4375 335.61523438 C-20.73061556 339.11657711 -33.18848971 339.7993625 -45.890625 339.734375 C-46.61457458 339.73288452 -47.33852417 339.73139404 -48.08441162 339.7298584 C-58.87081143 339.68997601 -69.08553979 339.11345121 -79.578125 336.421875 C-80.94259835 336.09329293 -82.30718471 335.76517987 -83.671875 335.4375 C-88.68802581 334.18913128 -93.58961297 332.90821916 -98.3203125 330.796875 C-101.44942701 329.22745149 -101.44942701 329.22745149 -104.578125 329.421875 Z M-104.578125 371.421875 C-104.7828035 374.6292546 -104.90617821 377.83494677 -105.015625 381.046875 C-105.07427734 381.95050781 -105.13292969 382.85414063 -105.19335938 383.78515625 C-105.34741019 388.84147911 -105.34741019 388.84147911 -103.24584961 393.29711914 C-99.45129297 396.73348754 -95.07669522 398.9173693 -90.265625 400.609375 C-89.56671143 400.8563916 -88.86779785 401.1034082 -88.14770508 401.35791016 C-60.36390275 410.72323678 -23.54399464 410.00797108 3.421875 398.421875 C4.36675781 398.11894531 5.31164062 397.81601562 6.28515625 397.50390625 C9.25194376 396.22583449 10.48733093 394.99632823 12.421875 392.421875 C13.00029052 389.9877229 13.00029052 389.9877229 12.96484375 387.3671875 C12.98434082 386.42101562 13.00383789 385.47484375 13.02392578 384.5 C12.96538233 380.12875554 12.76154 375.7800382 12.421875 371.421875 C7.67987261 372.83678796 2.93928611 374.25307856 -1.78125 375.73828125 C-3.13015279 376.15382616 -4.4791105 376.56919287 -5.828125 376.984375 C-6.47652344 377.19255859 -7.12492187 377.40074219 -7.79296875 377.61523438 C-20.05825839 381.34154618 -32.61838903 381.79899477 -45.328125 381.734375 C-46.07447205 381.73255219 -46.82081909 381.73072937 -47.58978271 381.72885132 C-65.67027586 381.65458239 -82.53969759 379.27949322 -99.33984375 372.26953125 C-101.6468149 371.24479391 -101.6468149 371.24479391 -104.578125 371.421875 Z M-104.578125 413.421875 C-104.72396564 416.65056246 -104.81236606 419.87839865 -104.890625 423.109375 C-104.93251953 424.02138672 -104.97441406 424.93339844 -105.01757812 425.87304688 C-105.09825433 430.31023815 -105.11010627 432.66690158 -102.5 436.37109375 C-79.04756975 452.83168985 -42.79341598 451.47852622 -15.88867188 446.85839844 C-6.25410427 444.96228034 5.35117177 441.49257823 12.421875 434.421875 C12.50873103 432.86014755 12.52889719 431.29458156 12.51953125 429.73046875 C12.51630859 428.78623047 12.51308594 427.84199219 12.50976562 426.86914062 C12.50138672 425.87591797 12.49300781 424.88269531 12.484375 423.859375 C12.47986328 422.86228516 12.47535156 421.86519531 12.47070312 420.83789062 C12.45887507 418.36582651 12.44239349 415.89387982 12.421875 413.421875 C11.86717529 413.6087085 11.31247559 413.79554199 10.7409668 413.98803711 C5.59017921 415.71513962 0.43231085 417.40456132 -4.765625 418.984375 C-5.74499023 419.29665039 -5.74499023 419.29665039 -6.74414062 419.61523438 C-18.76717023 423.24375514 -31.04742518 423.77209552 -43.50854492 423.73754883 C-45.87791187 423.73439194 -48.24602064 423.75794394 -50.61523438 423.78320312 C-64.19819426 423.84013758 -77.27355547 422.20098835 -90.203125 417.859375 C-94.97671178 416.27966226 -99.7360519 414.77242752 -104.578125 413.421875 Z " fill="#2463EA" transform="translate(124.578125,45.578125)"/>
<path d="M0 0 C23.2493065 -0.44074515 53.77651243 1.5929263 71.796875 18.125 C77.42042962 23.78621235 80.00621814 28.42118961 80.073686 36.49119502 C80.0690402 37.74517621 80.0690402 37.74517621 80.06430054 39.02449036 C80.06883165 39.92149947 80.07336276 40.81850859 80.07803118 41.7426998 C80.0906928 44.74884766 80.08905366 47.75481475 80.08740234 50.76098633 C80.0933865 52.91620619 80.10019179 55.0714239 80.10775757 57.22663879 C80.12543651 63.08207647 80.13011376 68.93745571 80.13138914 74.79291749 C80.13328799 79.68106126 80.14064538 84.5691914 80.14773333 89.45732993 C80.16402219 100.99052189 80.16890184 112.52368262 80.16748047 124.05688477 C80.16627898 135.95330943 80.18738119 147.84955269 80.2189678 159.74593145 C80.24512129 169.96009417 80.25584815 180.17419762 80.25456965 190.38839358 C80.25405973 196.48862151 80.25975943 202.58868825 80.28092575 208.68888283 C80.30029228 214.4271192 80.30044321 220.16504038 80.28589249 225.90328789 C80.28380132 228.00754888 80.28852355 230.11182952 80.3006134 232.21605682 C80.3160681 235.09259399 80.30675596 237.96804465 80.29135132 240.84455872 C80.30163844 241.67385401 80.31192557 242.50314931 80.32252443 243.35757476 C80.24248111 250.13860071 78.19272208 255.2027553 73.89453125 260.4453125 C64.1105851 269.12128778 52.36536871 273.15138161 39.796875 276.125 C38.00443359 276.57552734 38.00443359 276.57552734 36.17578125 277.03515625 C15.02187304 281.7386806 -11.22414279 281.48224776 -32.203125 276.125 C-32.91903809 275.94807617 -33.63495117 275.77115234 -34.37255859 275.58886719 C-48.71124256 271.98317858 -62.49673701 267.25741681 -71.29445648 254.54849529 C-72.6856481 250.83807034 -72.49194737 247.11175024 -72.48400879 243.20063782 C-72.48995103 242.28885448 -72.49589328 241.37707115 -72.50201559 240.43765801 C-72.51939014 237.37547525 -72.52240608 234.31344887 -72.52539062 231.2512207 C-72.53464702 229.05836147 -72.54469634 226.86550545 -72.55548096 224.6726532 C-72.5817343 218.70966726 -72.59462008 212.74672636 -72.60350227 206.78369164 C-72.60936336 203.05817766 -72.61757295 199.33267599 -72.62651062 195.6071682 C-72.65386298 183.95080831 -72.67322641 172.29447427 -72.6809144 160.63808471 C-72.68180133 159.29689045 -72.68269445 157.9556962 -72.68359375 156.61450195 C-72.68403661 155.94922704 -72.68447947 155.28395214 -72.68493575 154.59851738 C-72.69282734 143.82502699 -72.72772238 133.05180753 -72.77431279 122.27842174 C-72.82179248 111.20976669 -72.84615143 100.14125427 -72.84899664 89.07249707 C-72.8510925 82.86090454 -72.86290195 76.64969407 -72.89863586 70.43819618 C-72.9316068 64.5931674 -72.9359044 58.74880762 -72.91835785 52.90371895 C-72.91681752 50.76116392 -72.92549743 48.61857286 -72.94527435 46.47610855 C-73.11522822 26.9137848 -73.11522822 26.9137848 -67.85677338 20.65454388 C-49.59635333 3.76454836 -23.84943138 0.93070952 0 0 Z M-55.203125 33.125 C-54.26283832 36.59453884 -53.50055162 37.91766347 -50.5078125 40.00390625 C-20.22147711 54.87111645 17.08831053 54.42075104 48.80078125 44.15234375 C54.0061576 42.2362067 57.77008712 39.93985168 61.796875 36.125 C61.475665 33.12704002 60.87798293 32.19791085 58.59375 30.14453125 C50.81736858 24.52946254 41.09681863 21.97573505 31.796875 20.125 C30.24226563 19.815625 30.24226563 19.815625 28.65625 19.5 C5.61531844 15.71244961 -37.63492748 13.82236259 -55.203125 33.125 Z M-55.203125 57.125 C-55.34896564 60.35368746 -55.43736606 63.58152365 -55.515625 66.8125 C-55.55751953 67.72451172 -55.59941406 68.63652344 -55.64257812 69.57617188 C-55.74857273 75.25661622 -55.74857273 75.25661622 -52.953125 80.109375 C-44.25245364 86.48657162 -34.60810008 88.95870551 -24.203125 91.125 C-23.14996094 91.35316406 -22.09679687 91.58132813 -21.01171875 91.81640625 C2.98150823 96.11056327 36.01296303 95.72628146 57.171875 81.875 C59.5881112 80.12002264 59.5881112 80.12002264 61.796875 78.125 C61.88373103 76.56327255 61.90389719 74.99770656 61.89453125 73.43359375 C61.89130859 72.48935547 61.88808594 71.54511719 61.88476562 70.57226562 C61.87638672 69.57904297 61.86800781 68.58582031 61.859375 67.5625 C61.85486328 66.56541016 61.85035156 65.56832031 61.84570312 64.54101562 C61.83387507 62.06895151 61.81739349 59.59700482 61.796875 57.125 C61.24451172 57.32134033 60.69214844 57.51768066 60.12304688 57.7199707 C24.4751234 70.2831318 -16.08575643 73.56558743 -51.48828125 57.82421875 C-53.20313324 56.99914504 -53.20313324 56.99914504 -55.203125 57.125 Z M-55.203125 99.125 C-55.34852453 102.54121788 -55.43722225 105.95663991 -55.515625 109.375 C-55.55751953 110.34308594 -55.59941406 111.31117188 -55.64257812 112.30859375 C-55.87159206 118.00744314 -55.87159206 118.00744314 -52.93359375 122.64453125 C-52.03253906 123.13308594 -51.13148438 123.62164062 -50.203125 124.125 C-49.2440625 124.77275391 -49.2440625 124.77275391 -48.265625 125.43359375 C-22.20241196 139.69925392 15.58762135 138.0841832 43.19921875 130.33203125 C53.51411196 126.87222655 53.51411196 126.87222655 61.796875 120.125 C62.20867262 117.90526057 62.20867262 117.90526057 62.08984375 115.45703125 C62.08017578 114.56435547 62.07050781 113.67167969 62.06054688 112.75195312 C62.03541016 111.82318359 62.01027344 110.89441406 61.984375 109.9375 C61.97083984 108.99712891 61.95730469 108.05675781 61.94335938 107.08789062 C61.90800596 104.76634962 61.85866174 102.44596347 61.796875 100.125 C57.38265725 100.88932953 53.17904225 102.19781928 48.921875 103.5625 C17.64524427 113.52490506 -15.22599553 112.82026154 -46.203125 102.125 C-47.85617635 101.57113921 -49.50983338 101.01908315 -51.1640625 100.46875 C-51.93282715 100.21287109 -52.7015918 99.95699219 -53.49365234 99.69335938 C-54.05777832 99.50580078 -54.6219043 99.31824219 -55.203125 99.125 Z M-55.203125 142.125 C-55.37812233 145.3534763 -55.48419118 148.58072926 -55.578125 151.8125 C-55.62839844 152.72451172 -55.67867187 153.63652344 -55.73046875 154.57617188 C-55.9298091 159.45830001 -55.9298091 159.45830001 -54.02758789 163.79516602 C-39.71903414 176.2002143 -15.26601862 177.35926462 2.609375 177.375 C3.29773438 177.37567474 3.98609375 177.37634949 4.6953125 177.37704468 C23.74198005 177.34745021 44.92881938 175.86736116 60.796875 164.125 C61.99717408 161.72440183 61.91147243 160.23139351 61.89453125 157.5546875 C61.89130859 156.65878906 61.88808594 155.76289063 61.88476562 154.83984375 C61.87638672 153.90269531 61.86800781 152.96554687 61.859375 152 C61.85486328 151.05511719 61.85035156 150.11023438 61.84570312 149.13671875 C61.83389857 146.79941613 61.81743259 144.46223939 61.796875 142.125 C61.21429932 142.30401855 60.63172363 142.48303711 60.03149414 142.66748047 C57.29191812 143.50511036 54.54509371 144.31613841 51.796875 145.125 C50.79164795 145.42229004 50.79164795 145.42229004 49.76611328 145.72558594 C47.50813948 146.38889414 45.2466924 147.03917339 42.984375 147.6875 C42.27490723 147.89721436 41.56543945 148.10692871 40.83447266 148.32299805 C28.68753478 151.76540056 16.59477614 152.4992235 4.046875 152.4375 C3.29708374 152.43600952 2.54729248 152.43451904 1.77478027 152.4329834 C-9.15834638 152.39389276 -19.58023617 151.93239279 -30.203125 149.125 C-31.46769531 148.80015625 -32.73226562 148.4753125 -34.03515625 148.140625 C-39.07559176 146.76835983 -44.0158514 145.25400364 -48.890625 143.375 C-52.08084215 141.94847137 -52.08084215 141.94847137 -55.203125 142.125 Z M-55.203125 184.125 C-55.37812233 187.3534763 -55.48419118 190.58072926 -55.578125 193.8125 C-55.62839844 194.72451172 -55.67867187 195.63652344 -55.73046875 196.57617188 C-55.94105067 201.48901242 -55.94105067 201.48901242 -53.96386719 205.81274414 C-52.21101318 207.36564963 -52.21101318 207.36564963 -49.203125 209.125 C-48.5946875 209.52847656 -47.98625 209.93195313 -47.359375 210.34765625 C-31.70770786 218.28423275 -14.23646695 219.52179024 2.984375 219.4375 C3.75623138 219.43567719 4.52808777 219.43385437 5.32333374 219.43197632 C22.08082385 219.36531376 37.22584297 217.81521528 52.796875 211.125 C53.74175781 210.82207031 54.68664062 210.51914062 55.66015625 210.20703125 C58.62694376 208.92895949 59.86233093 207.69945323 61.796875 205.125 C62.37529052 202.6908479 62.37529052 202.6908479 62.33984375 200.0703125 C62.35934082 199.12414062 62.37883789 198.17796875 62.39892578 197.203125 C62.34038233 192.83188054 62.13654 188.4831632 61.796875 184.125 C57.05487261 185.53991296 52.31428611 186.95620356 47.59375 188.44140625 C46.24484721 188.85695116 44.8958895 189.27231787 43.546875 189.6875 C42.89847656 189.89568359 42.25007813 190.10386719 41.58203125 190.31835938 C29.31674161 194.04467118 16.75661097 194.50211977 4.046875 194.4375 C3.30052795 194.43567719 2.55418091 194.43385437 1.78521729 194.43197632 C-16.29527586 194.35770739 -33.16469759 191.98261822 -49.96484375 184.97265625 C-52.2718149 183.94791891 -52.2718149 183.94791891 -55.203125 184.125 Z M-55.203125 226.125 C-55.4078035 229.3323796 -55.53117821 232.53807177 -55.640625 235.75 C-55.69927734 236.65363281 -55.75792969 237.55726563 -55.81835938 238.48828125 C-55.96833485 243.53641888 -55.96833485 243.53641888 -53.890625 247.99804688 C-49.91514633 251.62645995 -45.37043993 253.65180111 -40.328125 255.375 C-39.34392578 255.73851562 -39.34392578 255.73851562 -38.33984375 256.109375 C-10.88723467 265.95592485 24.70131352 264.91481728 51.5625 253.72265625 C55.18149155 251.93501429 58.91431611 250.00755889 61.796875 247.125 C61.88373103 245.56327255 61.90389719 243.99770656 61.89453125 242.43359375 C61.89130859 241.48935547 61.88808594 240.54511719 61.88476562 239.57226562 C61.87638672 238.57904297 61.86800781 237.58582031 61.859375 236.5625 C61.85486328 235.56541016 61.85035156 234.56832031 61.84570312 233.54101562 C61.83387507 231.06895151 61.81739349 228.59700482 61.796875 226.125 C61.24290039 226.3118335 60.68892578 226.49866699 60.11816406 226.69116211 C54.94779123 228.42611674 49.76786792 230.11125738 44.546875 231.6875 C43.55494141 231.99977539 43.55494141 231.99977539 42.54296875 232.31835938 C30.67723709 235.88254808 18.80942989 236.47359322 6.51464844 236.44067383 C4.06399627 236.43752202 1.61456592 236.46103736 -0.8359375 236.48632812 C-14.57144937 236.54210046 -27.74945135 234.95418094 -40.828125 230.5625 C-45.60171178 228.98278726 -50.3610519 227.47555252 -55.203125 226.125 Z " fill="#2463EB" transform="translate(252.203125,232.875)"/>
<path d="M0 0 C9.56751846 9.17522841 9.56751846 9.17522841 9.84906483 15.80524826 C9.85547505 17.77853544 9.85547505 17.77853544 9.86201477 19.79168701 C9.86569146 20.52435075 9.86936815 21.25701449 9.87315625 22.01188016 C9.88419373 24.47374747 9.88803703 26.93557258 9.8918457 29.39746094 C9.89811029 31.15992365 9.90475709 32.92238503 9.91175842 34.68484497 C9.93280117 40.47868937 9.94316076 46.27253404 9.953125 52.06640625 C9.95717243 54.06072249 9.96128934 56.0550386 9.96547508 58.04935455 C9.98452694 67.4183307 9.99875818 76.78729897 10.00708705 86.15629077 C10.01686095 96.97227998 10.0431845 107.78806462 10.08358794 118.60398173 C10.11374349 126.96331988 10.12855539 135.32259937 10.13186806 143.68199086 C10.13421914 148.67503638 10.14318708 153.66786334 10.16832924 158.66085052 C10.19160519 163.35913955 10.1958451 168.05706606 10.18556786 172.7553978 C10.18507227 174.47790864 10.19139934 176.20043729 10.2051239 177.92289352 C10.22284283 180.2788425 10.21573773 182.63349041 10.20259094 184.98944092 C10.2049793 186.30647381 10.20736765 187.6235067 10.20982838 188.98044968 C9.22054677 196.30352258 4.89748928 201.07122204 -0.61328125 205.7265625 C-9.40375012 212.03667977 -19.86482052 215.17915213 -30.28515625 217.64453125 C-32.07759766 218.09505859 -32.07759766 218.09505859 -33.90625 218.5546875 C-55.07056455 223.26052567 -81.29436578 222.98881226 -102.28515625 217.64453125 C-103.3510498 217.38712158 -103.3510498 217.38712158 -104.43847656 217.12451172 C-117.07300107 214.02814007 -131.27206267 209.61102218 -139.28515625 198.64453125 C-142.04796538 193.96104186 -142.66144709 190.54386117 -142.66610718 185.12988281 C-142.67078715 184.39395023 -142.67546712 183.65801765 -142.68028891 182.89978409 C-142.69221258 180.4447224 -142.68279224 177.99022164 -142.67333984 175.53515625 C-142.67740672 173.77062658 -142.68274925 172.00609946 -142.68927002 170.24157715 C-142.7029356 165.4564946 -142.69764808 160.67160629 -142.68813276 155.88652039 C-142.68053227 150.87649007 -142.68758286 145.86647628 -142.69229126 140.85644531 C-142.69774767 132.44332903 -142.69056019 124.03029178 -142.67626953 115.6171875 C-142.65994325 105.89345593 -142.66523184 96.16991307 -142.68174875 86.44618607 C-142.69536686 78.09443167 -142.69728168 69.74273405 -142.68943274 61.39097214 C-142.68475802 56.40421201 -142.68412587 51.41754055 -142.69404221 46.43078613 C-142.7027143 41.74232661 -142.69668547 37.05411017 -142.67935944 32.36567688 C-142.6753959 30.64598494 -142.67652637 28.92627251 -142.68314743 27.20658875 C-142.69135841 24.8571771 -142.68104734 22.508542 -142.66610718 20.15917969 C-142.6649761 18.84512146 -142.66384502 17.53106323 -142.66267967 16.17718506 C-141.95003783 9.50867981 -138.53939063 5.1611484 -133.8359375 0.6640625 C-103.25006302 -23.55170642 -30.79891472 -25.54220717 0 0 Z M-121.28515625 13.64453125 C-123.57619901 16.21486519 -123.57619901 16.21486519 -125.28515625 18.64453125 C-117.36333651 27.88665428 -105.71951481 30.26392123 -94.28515625 32.64453125 C-93.23199219 32.87269531 -92.17882812 33.10085938 -91.09375 33.3359375 C-64.91529203 38.02119343 -33.7470982 35.96051546 -10.55078125 22.328125 C-8.01089148 20.77647928 -8.01089148 20.77647928 -7.28515625 17.64453125 C-21.82202477 3.10766273 -46.74062527 1.74106549 -66.28515625 1.39453125 C-84.56645022 1.73864972 -105.709284 3.1035349 -121.28515625 13.64453125 Z M-125.28515625 40.64453125 C-125.43099689 43.87321871 -125.51939731 47.1010549 -125.59765625 50.33203125 C-125.63955078 51.24404297 -125.68144531 52.15605469 -125.72460938 53.09570312 C-125.83279111 58.78354674 -125.83279111 58.78354674 -123.015625 63.6328125 C-102.03501313 79.09063097 -69.38502388 78.58049068 -44.66015625 75.95703125 C-32.46067506 74.10312497 -19.46657327 70.9084662 -9.28515625 63.64453125 C-7.14911317 60.44046663 -7.04306717 59.64852378 -7.08984375 55.9765625 C-7.09628906 55.08388672 -7.10273438 54.19121094 -7.109375 53.27148438 C-7.12613281 52.34271484 -7.14289063 51.41394531 -7.16015625 50.45703125 C-7.16917969 49.51666016 -7.17820312 48.57628906 -7.1875 47.60742188 C-7.21106569 45.28620157 -7.24396509 42.96549481 -7.28515625 40.64453125 C-8.45691406 41.04285156 -9.62867188 41.44117188 -10.8359375 41.8515625 C-45.84335643 53.69115445 -81.00164908 55.82662636 -116.28515625 43.64453125 C-117.9382076 43.09067046 -119.59186463 42.5386144 -121.24609375 41.98828125 C-122.0148584 41.73240234 -122.78362305 41.47652344 -123.57568359 41.21289062 C-124.13980957 41.02533203 -124.70393555 40.83777344 -125.28515625 40.64453125 Z M-125.28515625 82.64453125 C-125.401835 85.87339134 -125.47256171 89.1017057 -125.53515625 92.33203125 C-125.56867188 93.24404297 -125.6021875 94.15605469 -125.63671875 95.09570312 C-125.69805486 99.31256047 -125.70418517 101.9152873 -123.5703125 105.62890625 C-109.51460484 118.02676121 -84.29709453 119.03645254 -66.59765625 118.95703125 C-64.63590454 118.94965942 -64.63590454 118.94965942 -62.63452148 118.94213867 C-44.59353386 118.72517952 -22.59437185 117.02890313 -8.28515625 104.64453125 C-7.08485717 102.24393308 -7.17055882 100.75092476 -7.1875 98.07421875 C-7.19072266 97.17832031 -7.19394531 96.28242188 -7.19726562 95.359375 C-7.20564453 94.42222656 -7.21402344 93.48507812 -7.22265625 92.51953125 C-7.22716797 91.57464844 -7.23167969 90.62976563 -7.23632812 89.65625 C-7.24813268 87.31894738 -7.26459866 84.98177064 -7.28515625 82.64453125 C-8.91710937 83.24201172 -8.91710937 83.24201172 -10.58203125 83.8515625 C-28.95293302 90.5067133 -46.4466149 94.05338786 -66.03515625 93.95703125 C-66.78494751 93.95554077 -67.53473877 93.95405029 -68.30725098 93.95251465 C-79.24113977 93.91342128 -89.66111525 93.44975556 -100.28515625 90.64453125 C-102.12980469 90.17466797 -102.12980469 90.17466797 -104.01171875 89.6953125 C-111.24552492 87.73583395 -118.29010104 85.32834835 -125.28515625 82.64453125 Z M-125.28515625 124.64453125 C-125.401835 127.87339134 -125.47256171 131.1017057 -125.53515625 134.33203125 C-125.56867188 135.24404297 -125.6021875 136.15605469 -125.63671875 137.09570312 C-125.69810889 141.31627518 -125.70802815 143.91289574 -123.5625 147.625 C-121.30012387 149.63125808 -119.32517326 150.978243 -116.59765625 152.26953125 C-115.41623047 152.84574219 -115.41623047 152.84574219 -114.2109375 153.43359375 C-87.22199017 164.60391908 -49.4184487 164.752165 -21.98046875 154.81640625 C-16.34260071 152.36515928 -10.74683604 149.83705094 -7.28515625 144.64453125 C-7.01037252 142.41967384 -7.01037252 142.41967384 -7.08984375 139.9765625 C-7.09628906 139.08388672 -7.10273438 138.19121094 -7.109375 137.27148438 C-7.12613281 136.34271484 -7.14289063 135.41394531 -7.16015625 134.45703125 C-7.16917969 133.51666016 -7.17820312 132.57628906 -7.1875 131.60742188 C-7.21106569 129.28620157 -7.24396509 126.96549481 -7.28515625 124.64453125 C-8.38472656 125.04285156 -9.48429687 125.44117188 -10.6171875 125.8515625 C-29.08419392 132.49373784 -46.36129584 136.05705854 -66.03515625 135.95703125 C-66.7815033 135.95520844 -67.52785034 135.95338562 -68.29681396 135.95150757 C-88.73792214 135.86754198 -106.19566471 131.89263841 -125.28515625 124.64453125 Z M-125.28515625 167.64453125 C-125.39338417 170.70798269 -125.47257104 173.76759135 -125.53515625 176.83203125 C-125.56867188 177.69634766 -125.6021875 178.56066406 -125.63671875 179.45117188 C-125.69986708 183.5716005 -125.67368779 185.98446418 -123.546875 189.59765625 C-107.8164805 203.83379912 -79.49427641 204.20145127 -59.40332031 203.55126953 C-42.34265729 202.63969774 -21.94374749 200.65148873 -8.41015625 189.03515625 C-6.5674523 185.11941037 -6.97489886 181.15641616 -7.09765625 176.89453125 C-7.11119141 176.00636719 -7.12472656 175.11820313 -7.13867188 174.203125 C-7.17394316 172.01630547 -7.22322873 169.83073159 -7.28515625 167.64453125 C-8.17436768 167.91305908 -8.17436768 167.91305908 -9.08154297 168.18701172 C-10.71355561 168.6786625 -12.3467497 169.16639332 -13.98046875 169.65234375 C-16.41755499 170.38404576 -18.848087 171.12995171 -21.27734375 171.88671875 C-22.71737572 172.3270591 -24.15748016 172.76716251 -25.59765625 173.20703125 C-26.59043579 173.52160278 -26.59043579 173.52160278 -27.60327148 173.8425293 C-39.44062215 177.42185474 -51.29718875 177.99305863 -63.56738281 177.96020508 C-66.01803498 177.95705327 -68.46746533 177.98056861 -70.91796875 178.00585938 C-84.65348062 178.06163171 -97.8314826 176.47371219 -110.91015625 172.08203125 C-115.68374303 170.50231851 -120.44308315 168.99508377 -125.28515625 167.64453125 Z " fill="#2463EB" transform="translate(499.28515625,291.35546875)"/>
<path d="M0 0 C3.02988102 1.27903051 4.80118536 3.18390357 7.12236404 5.51249027 C7.60764092 5.99520388 8.0929178 6.47791748 8.59290004 6.97525877 C10.21839672 8.59581103 11.83293371 10.22685867 13.44774246 11.85805607 C14.61023489 13.02139462 15.77338814 14.18407316 16.93715286 15.34613895 C20.09646095 18.50458511 23.24642393 21.67220604 26.39481831 24.84152627 C29.68597078 28.15141249 32.98560156 31.45282416 36.28435135 34.75513554 C42.5305401 41.01065445 48.76904116 47.2737825 55.00483203 53.53966469 C62.10407446 60.67242085 69.21182128 67.79667635 76.32030344 74.9202224 C90.9435704 89.57486039 105.55609778 104.24016721 120.16160965 118.91249943 C124.80015522 115.03457499 129.20407943 111.01213611 133.46409988 106.72353458 C134.0503363 106.13744419 134.63657272 105.5513538 135.24057388 104.94750309 C137.15283409 103.03455339 139.06154051 101.1181003 140.9702034 99.20156193 C142.30519424 97.86470347 143.64040792 96.52806751 144.97583389 95.19164371 C148.47143982 91.69223963 151.96403079 88.18984173 155.45598221 84.68679142 C159.02725035 81.10525078 162.60138966 77.52657787 166.17528152 73.94765568 C173.17352206 66.93872553 180.1685778 59.92662618 187.16160965 52.91249943 C191.48446414 54.57383103 194.374595 57.85375604 197.564991 61.07537174 C198.20544286 61.71411476 198.84589473 62.35285778 199.50575423 63.01095665 C201.65396103 65.15586506 203.79493418 67.30785138 205.93602371 69.45986271 C207.47311045 70.99751348 209.01063751 72.53472421 210.54857254 74.07152653 C214.72624677 78.24862596 218.89771748 82.43187171 223.06812382 86.61622572 C227.4260997 90.98668766 231.78972418 95.35150226 236.15275955 99.71691227 C244.41564224 107.98601597 252.67341262 116.2602056 260.92937064 124.53622234 C270.32800525 133.9571966 279.73230501 143.37250427 289.13709307 152.78733563 C308.48492266 172.15608131 327.82540263 191.5321513 347.16160965 210.91249943 C347.49160965 201.67249943 347.82160965 192.43249943 348.16160965 182.91249943 C353.77160965 182.91249943 359.38160965 182.91249943 365.16160965 182.91249943 C365.16160965 202.38249943 365.16160965 221.85249943 365.16160965 241.91249943 C345.36160965 241.91249943 325.56160965 241.91249943 305.16160965 241.91249943 C305.16160965 236.30249943 305.16160965 230.69249943 305.16160965 224.91249943 C314.73160965 224.58249943 324.30160965 224.25249943 334.16160965 223.91249943 C286.31160965 176.06249943 238.46160965 128.21249943 189.16160965 78.91249943 C184.8997721 81.0434182 182.12631414 83.68019347 178.83250809 87.01455021 C178.20769547 87.63907078 177.58288284 88.26359135 176.93913651 88.90703678 C174.87830896 90.96925593 172.82465312 93.03846533 170.77098465 95.10781193 C169.3422424 96.5402849 167.9130575 97.9723165 166.48344803 99.40392399 C162.72418948 103.17081427 158.97097608 106.94367236 155.2189827 110.71779728 C151.38838148 114.56886674 147.5521037 118.41427214 143.71629715 122.26015568 C136.19249587 129.80539877 128.67506763 137.35695753 121.16160965 144.91249943 C114.24093185 139.2451709 108.01585776 132.90026719 101.70872879 126.57314396 C100.45669562 125.32082838 99.20444155 124.06873363 97.95198441 122.81684208 C94.56803313 119.43317666 91.18716503 116.04644593 87.80685735 112.65914106 C84.26792402 109.11393908 80.72614186 105.57158547 77.18466568 102.02892399 C70.48573066 95.32688599 63.78934796 88.62230386 57.09388679 81.91679561 C49.46828132 74.27999687 41.83982222 66.64605136 34.21112645 59.01233983 C18.52478512 43.31555752 2.84201668 27.61520969 -12.83839035 11.91249943 C-11.89327551 10.80816357 -10.94791466 9.70403825 -10.00245285 8.59999943 C-9.47603195 7.98511662 -8.94961105 7.3702338 -8.40723801 6.73671818 C-2.51081235 -0.11950537 -2.51081235 -0.11950537 0 0 Z " fill="#2462EB" transform="translate(143.8383903503418,0.08750057220458984)"/>
<path d="M0 0 C5.75628153 4.78352587 11.05263186 9.91663033 16.33178711 15.21826172 C17.69394348 16.58019905 17.69394348 16.58019905 19.08361816 17.96965027 C21.55437636 20.4401235 24.02205581 22.91365083 26.48916316 25.38776922 C29.07516336 27.98005325 31.66402707 30.56947443 34.25257874 33.15921021 C39.14530237 38.0550324 44.03547296 42.95339636 48.92471462 47.85269558 C54.49472932 53.4339174 60.06760984 59.01227394 65.64072406 64.59040046 C77.09699112 76.05709847 88.54968266 87.52736069 100 99 C99.15356901 100.04796218 98.29723808 101.08792692 97.4375 102.125 C96.96183594 102.70507812 96.48617187 103.28515625 95.99609375 103.8828125 C93.22540048 106.82159088 90.06660344 109.37148276 87 112 C58.62 83.62 30.24 55.24 1 26 C-3.62412043 29.9635318 -8.0290067 33.88680991 -12.30249023 38.18896484 C-12.88872665 38.77505524 -13.47496307 39.36114563 -14.07896423 39.96499634 C-15.99122444 41.87794604 -17.89993086 43.79439913 -19.80859375 45.7109375 C-21.14358459 47.04779595 -22.47879827 48.38443192 -23.81422424 49.72085571 C-27.30983017 53.22025979 -30.80242114 56.7226577 -34.29437256 60.22570801 C-37.8656407 63.80724865 -41.43978002 67.38592156 -45.01367188 70.96484375 C-52.01191241 77.9737739 -59.00696815 84.98587324 -66 92 C-69.89395116 90.41600411 -72.51152235 87.75803057 -75.41113281 84.81591797 C-75.93840973 84.28893311 -76.46568665 83.76194824 -77.00894165 83.21899414 C-78.74512072 81.48142524 -80.474114 79.73688686 -82.203125 77.9921875 C-83.40766437 76.78391678 -84.61264697 75.57608778 -85.8180542 74.36868286 C-88.98548106 71.19362923 -92.14685513 68.01261478 -95.30700684 64.83032227 C-98.53437089 61.58247924 -101.76742228 58.34030867 -105 55.09765625 C-111.33891303 48.73731018 -117.67144624 42.37065247 -124 36 C-123.15356901 34.95203782 -122.29723808 33.91207308 -121.4375 32.875 C-120.96183594 32.29492188 -120.48617187 31.71484375 -119.99609375 31.1171875 C-117.22540048 28.17840912 -114.06660344 25.62851724 -111 23 C-96.81 37.19 -82.62 51.38 -68 66 C-63.73816245 63.86908122 -60.96470449 61.23230596 -57.67089844 57.89794922 C-57.04608582 57.27342865 -56.42127319 56.64890808 -55.77752686 56.00546265 C-53.71669931 53.9432435 -51.66304347 51.8740341 -49.609375 49.8046875 C-48.18063275 48.37221453 -46.75144785 46.94018293 -45.32183838 45.50857544 C-41.56257983 41.74168516 -37.80936643 37.96882707 -34.05737305 34.19470215 C-30.22677183 30.34363269 -26.39049405 26.49822729 -22.5546875 22.65234375 C-15.03088622 15.10710066 -7.51345798 7.55554189 0 0 Z " fill="#2462EB" transform="translate(331,120)"/>
<path d="M0 0 C5.99500997 4.96194855 11.46427037 10.3476624 16.9375 15.875 C17.81212891 16.75414063 18.68675781 17.63328125 19.58789062 18.5390625 C21.72757048 20.6904346 23.86486597 22.84411792 26 25 C25.15356901 26.04796218 24.29723808 27.08792692 23.4375 28.125 C22.72400391 28.99511719 22.72400391 28.99511719 21.99609375 29.8828125 C19.22540048 32.82159088 16.06660344 35.37148276 13 38 C4.75 29.75 -3.5 21.5 -12 13 C-8.04354855 8.38413998 -4.30058488 4.19819 0 0 Z " fill="#2463EB" transform="translate(177,101)"/>
</svg>
