<?xml version="1.0" encoding="UTF-8"?>
<svg version="1.1" xmlns="http://www.w3.org/2000/svg" width="512" height="512">
<path d="M0 0 C1.9375 1.0625 1.9375 1.0625 3 3 C3.70315007 6.34091301 3.92463081 7.79454811 3 11 C-0.08427728 15.09799347 -3.76197191 18.51523556 -7.5 22 C-8.5135367 22.97337098 -9.52527711 23.94861605 -10.53515625 24.92578125 C-13.00639657 27.30287909 -15.49431317 29.65932801 -18 32 C-16.9644397 32.50611816 -16.9644397 32.50611816 -15.90795898 33.02246094 C-8.91952803 36.60799127 -3.54329193 40.65323915 1.9375 46.25 C2.66517578 46.94996094 3.39285156 47.64992187 4.14257812 48.37109375 C9.93746622 54.19249094 13.4382304 60.13507529 14.390625 68.3828125 C14.34421875 69.28773438 14.2978125 70.19265625 14.25 71.125 C14.21390625 72.05570312 14.1778125 72.98640625 14.140625 73.9453125 C14.09421875 74.62335938 14.0478125 75.30140625 14 76 C14.6290625 75.96519531 15.258125 75.93039063 15.90625 75.89453125 C26.74970463 75.55159067 34.06396904 79.24938871 41.9453125 86.5390625 C43.34391536 87.8955229 44.73704551 89.25764595 46.125 90.625 C46.82753906 91.28628906 47.53007812 91.94757813 48.25390625 92.62890625 C54.79558824 99.07165921 58.42621714 106.12953366 58.60668945 115.41674805 C58.59210693 116.10422119 58.57752441 116.79169434 58.5625 117.5 C58.55371826 118.2319458 58.54493652 118.9638916 58.53588867 119.71801758 C58.19146295 128.90575145 54.10809128 135.36835804 48 142 C48.61963623 142.2666748 49.23927246 142.53334961 49.87768555 142.80810547 C56.68108141 145.94078087 61.61010358 149.77543873 66.8125 155.125 C67.55298584 155.88417725 68.29347168 156.64335449 69.05639648 157.42553711 C77.25005256 166.06740574 80.78762383 173.09554848 80.51513672 185.15942383 C79.37378421 205.18562366 58.53163468 219.63105197 45.28125 232.88671875 C44.33569591 233.83370033 43.39022655 234.7807665 42.44483948 235.72791481 C37.50039904 240.68155063 32.55344068 245.63265521 27.60400391 250.58129883 C23.02384969 255.16085148 18.44931683 259.74596674 13.87735224 264.33369416 C9.91966282 268.3045314 5.95805378 272.27142995 1.99346685 276.23538047 C-0.36040834 278.58900311 -2.7122773 280.94453793 -5.06114197 283.30316734 C-23.48588803 301.79737562 -23.48588803 301.79737562 -33 309 C-33.89368286 309.70263474 -34.78736572 310.40526947 -35.70812988 311.12919617 C-55.7850778 326.78431764 -83.15499528 335.83249973 -108.48828125 336.10546875 C-109.92010742 336.12770508 -109.92010742 336.12770508 -111.38085938 336.15039062 C-113.32341907 336.17497999 -115.2663225 336.18042512 -117.20898438 336.16601562 C-135.27459367 336.56693365 -145.15012134 349.51841031 -156.8125 361.6875 C-159.29179665 364.26275698 -161.77553667 366.83306898 -164.2721405 369.39155579 C-165.81644908 370.97509859 -167.35082475 372.56840959 -168.87348938 374.17277527 C-173.92211841 379.36295363 -177.93317734 382.51140646 -185.31640625 383.3984375 C-186.38761719 383.39070313 -187.45882812 383.38296875 -188.5625 383.375 C-189.63628906 383.38273437 -190.71007812 383.39046875 -191.81640625 383.3984375 C-204.68177641 381.78829301 -215.80421471 366.35349837 -224.5168457 357.61352539 C-226.58624982 355.53868782 -228.66104188 353.4693431 -230.73632812 351.40039062 C-232.05500887 350.0810503 -233.37338004 348.76140046 -234.69140625 347.44140625 C-235.3110878 346.82374893 -235.93076935 346.20609161 -236.56922913 345.56971741 C-241.88679078 340.22265955 -241.88679078 340.22265955 -242.3125 335.625 C-242 332 -242 332 -240.4375 329.5625 C-236.90550465 327.29840042 -235.13858566 327.2412593 -231 328 C-225.32353722 332.07935046 -220.50407285 337.43173187 -215.68359375 342.46484375 C-214.32968481 343.85570292 -212.97483976 345.24565134 -211.61914062 346.63476562 C-209.51482595 348.79482701 -207.41649379 350.95948596 -205.33325195 353.13989258 C-203.29943081 355.26450718 -201.24401153 357.3660547 -199.18359375 359.46484375 C-198.56673203 360.12097153 -197.9498703 360.7770993 -197.3143158 361.45310974 C-194.25105119 364.53573664 -192.72240991 365.87488049 -188.33642578 366.63452148 C-184.53904858 365.91233626 -183.16825116 365.06706007 -180.43359375 362.3828125 C-179.5813623 361.55942383 -178.72913086 360.73603516 -177.85107422 359.88769531 C-176.89882266 358.92700337 -175.94857511 357.9643222 -175 357 C-173.91823174 355.91493913 -172.8363586 354.82998281 -171.75439453 353.74511719 C-167.56070075 349.51863858 -163.38545683 345.27371558 -159.2434082 340.99658203 C-145.93255506 327.27497759 -135.78675332 319.94784596 -116.375 319.5 C-74.2797289 318.03827057 -46.64999043 300.85141287 -17.58203125 271.71484375 C-16.54797116 270.68145988 -15.51376289 269.64822426 -14.47941589 268.61512756 C-12.34101943 266.47818653 -10.2043947 264.33949498 -8.0690918 262.19946289 C-5.33103367 259.45563566 -2.58841058 256.71642158 0.15549755 253.97844601 C2.27876652 251.85877986 4.39966166 249.73675147 6.5198307 247.61398506 C7.53142232 246.60172713 8.5437552 245.59020941 9.55684471 244.57945061 C10.96112839 243.17769658 12.36188067 241.77240744 13.76245117 240.36694336 C14.95725349 239.17094765 14.95725349 239.17094765 16.17619324 237.95079041 C18.05546252 236.12586808 18.05546252 236.12586808 19 234 C18.25878906 233.88269531 17.51757812 233.76539063 16.75390625 233.64453125 C6.46584291 231.23668664 -3.32389132 220.45150207 -9.0625 211.94140625 C-12.60398759 205.39476213 -13.97076764 199.42501818 -14 192 C-15.06927734 191.94392578 -15.06927734 191.94392578 -16.16015625 191.88671875 C-29.98443012 190.93781166 -38.46285853 184.06397282 -47.91796875 174.41015625 C-53.37026523 168.09858603 -57.16164285 161.73964253 -57.0625 153.3125 C-57.05347656 152.31863281 -57.04445313 151.32476562 -57.03515625 150.30078125 C-57.01775391 149.16189453 -57.01775391 149.16189453 -57 148 C-57.78503906 147.96261719 -58.57007813 147.92523438 -59.37890625 147.88671875 C-73.65890031 146.99312403 -82.13272394 140.40104543 -91.91796875 130.41015625 C-98.18422917 123.15634259 -101.18793348 116.47929555 -101.3125 106.9375 C-101.34150391 106.22400391 -101.37050781 105.51050781 -101.40039062 104.77539062 C-101.50321577 95.92451841 -98.4849103 89.19188111 -92.43432617 82.76904297 C-90.56727863 80.9096479 -88.68942327 79.07064169 -86.79296875 77.2421875 C-85.78273062 76.24572396 -84.77391115 75.24782034 -83.76643372 74.24856567 C-81.12705827 71.63755272 -78.47062685 69.04463749 -75.80950928 66.45581055 C-72.59289389 63.32089658 -69.39498755 60.166926 -66.19640827 57.01362801 C-63.70479156 54.55739052 -61.21009157 52.10467516 -58.7039032 49.66329956 C-54.11161873 45.16939553 -49.68597121 40.63077744 -45.5096283 35.74734497 C-42.08300921 31.78114637 -38.31424007 28.12829495 -34.60961914 24.42431641 C-33.16718144 22.97965004 -31.73298435 21.52710146 -30.29882812 20.07421875 C-29.38939453 19.16285156 -28.47996094 18.25148437 -27.54296875 17.3125 C-26.71821045 16.48363281 -25.89345215 15.65476563 -25.04370117 14.80078125 C-23 13 -23 13 -21 13 C-20.73832031 12.41347656 -20.47664062 11.82695312 -20.20703125 11.22265625 C-15.97212456 3.42439765 -8.9326776 -2.31587938 0 0 Z M-50.7421875 63.34375 C-51.63237579 64.23106812 -52.52256409 65.11838623 -53.43972778 66.03259277 C-55.78191463 68.37223329 -58.11669812 70.71897106 -60.44915771 73.06829834 C-62.35297386 74.97993805 -64.26782643 76.88032982 -66.18270683 78.78087616 C-68.48068352 81.06536875 -70.76716126 83.36130037 -73.0546875 85.65625 C-73.9077951 86.50328491 -74.76090271 87.35031982 -75.63986206 88.22302246 C-81.06318218 93.7111318 -85.42574733 98.33990794 -85.4375 106.4375 C-85.22251032 112.79259489 -83.64699156 116.44521921 -79.09375 120.83984375 C-77.71002094 122.06093302 -76.30499655 123.25834998 -74.87890625 124.4296875 C-73 126 -73 126 -70.9375 128.3125 C-67.73012433 131.10602075 -64.24224589 131.96027517 -60.015625 132.03515625 C-50.17550302 131.25328609 -44.10601776 124.55183791 -37.48828125 117.88671875 C-36.59763474 116.99894241 -35.70698822 116.11116608 -34.78935242 115.19648743 C-32.91395404 113.32312463 -31.0418546 111.44705566 -29.17456055 109.56567383 C-26.79430076 107.16832354 -24.40082193 104.7846981 -22.0030489 102.40487957 C-19.69912691 100.11447457 -17.40674068 97.81259293 -15.11328125 95.51171875 C-14.25906082 94.66357101 -13.40484039 93.81542328 -12.5247345 92.9415741 C-4.23193947 84.65557752 -4.23193947 84.65557752 -1.375 73.625 C-1.74435747 64.62498964 -7.80578422 58.59763457 -14.0703125 52.6640625 C-18.80739496 48.57904808 -23.11914128 47.26449623 -29.30123901 47.55407715 C-37.94898126 48.98296467 -44.859395 57.41847713 -50.7421875 63.34375 Z M-5.86328125 106.46484375 C-6.77708054 107.37577286 -7.69087982 108.28670197 -8.63237 109.22523499 C-10.55417213 111.14264312 -12.47051697 113.06529751 -14.38305664 114.99194336 C-16.82501477 117.45104018 -19.28026467 119.89635391 -21.73974323 122.33791256 C-24.10075067 124.68543359 -26.45022095 127.04436166 -28.80078125 129.40234375 C-29.67889969 130.2743895 -30.55701813 131.14643524 -31.46174622 132.04490662 C-36.97638727 137.62354817 -41.42566953 142.26599468 -41.4375 150.5 C-41.45683594 151.3971875 -41.47617187 152.294375 -41.49609375 153.21875 C-40.38760683 159.43325935 -35.48231161 163.90607364 -31.1875 168.25 C-30.69185547 168.77851563 -30.19621094 169.30703125 -29.68554688 169.8515625 C-25.61135315 173.98343464 -21.69435861 175.8657759 -15.7421875 176.08203125 C-9.17909016 175.13463854 -5.33396354 172.58999584 -0.73217773 167.95922852 C0.07538467 167.15151505 0.88294708 166.34380157 1.71498108 165.51161194 C2.57345139 164.64281906 3.43192169 163.77402618 4.31640625 162.87890625 C5.65662086 161.53444679 5.65662086 161.53444679 7.02391052 160.16282654 C9.39164541 157.7858088 11.75495818 155.4045639 14.11621094 153.02111816 C16.51331358 150.60358107 18.91605453 148.19166267 21.31835938 145.77929688 C25.54851126 141.52950436 29.77424216 137.27537188 33.99610901 133.01734924 C35.38212035 131.62202937 36.77811817 130.23658455 38.18199158 128.85923767 C41.57405552 125.39024766 42.30712971 122.48592935 42.375 117.6875 C42.12488113 108.23300676 37.00629594 103.66779715 30.6328125 97.234375 C26.50942163 93.73499877 22.59288132 91.57170992 17.125 91.5 C16.34382813 91.4690625 15.56265625 91.438125 14.7578125 91.40625 C6.23472695 93.24124859 0.03415738 100.52614539 -5.86328125 106.46484375 Z M22.70703125 165.89453125 C22.23432297 166.36436935 21.76161469 166.83420746 21.27458191 167.31828308 C20.2836149 168.30722133 19.29637501 169.29990727 18.31274414 170.29614258 C16.81647968 171.80847758 15.30487148 173.30412567 13.79101562 174.79882812 C12.82455757 175.76726883 11.85903065 176.73663985 10.89453125 177.70703125 C10.02675049 178.5781958 9.15896973 179.44936035 8.26489258 180.34692383 C4.21663175 185.08902261 2.2152648 189.75732074 2 196 C3.90061965 202.68685163 6.80059601 206.58222272 11.75 211.375 C12.34554687 211.98988281 12.94109375 212.60476563 13.5546875 213.23828125 C17.96108625 217.5969917 21.86410873 219.84973405 28.2578125 220.08203125 C35.51327104 219.03469519 39.35093778 215.90224913 44.44921875 210.81640625 C44.9479097 210.31962875 45.44660065 209.82285126 45.96040344 209.3110199 C47.00739229 208.2653853 48.0518868 207.21724776 49.09399414 206.16674805 C50.68613581 204.56387338 52.28869731 202.97197786 53.89257812 201.38085938 C54.91210039 200.36001582 55.93100225 199.33855221 56.94921875 198.31640625 C57.87049561 197.39287354 58.79177246 196.46934082 59.7409668 195.51782227 C64.0569248 190.70743915 64.46433424 187.0643343 64.296875 180.734375 C63.38392069 172.3255853 56.13253835 166.20446874 50 161 C46.23359505 158.77928851 43.37977366 157.58288679 39 157.625 C38.195625 157.61726562 37.39125 157.60953125 36.5625 157.6015625 C30.7138114 158.51096225 26.79349098 161.82394421 22.70703125 165.89453125 Z " fill="#2463EB" transform="translate(366,129)"/>
<path d="M0 0 C8.19869605 6.95022899 13.15683459 15.30436056 14.06640625 26.05078125 C14.57975618 38.24138362 12.03635081 48.14857232 3.75 57.3125 C-7.36785366 69.10791888 -7.36785366 69.10791888 -12.125 69.625 C-15.25 69.3125 -15.25 69.3125 -17.5625 67.625 C-19.47678628 65.0017188 -20.17078375 63.5603662 -20.25 60.3125 C-18.30235632 56.49836446 -15.92589218 53.84613283 -12.8125 50.9375 C-9.0550657 47.27782009 -6.54951421 44.0073415 -4.25 39.3125 C-3.92 38.6525 -3.59 37.9925 -3.25 37.3125 C-2.58478331 29.6134347 -2.41709901 22.65097762 -7.25 16.3125 C-12.12139049 11.2145332 -17.76666961 8.420695 -24.83984375 8.25 C-40.83574573 9.40459142 -52.01702318 24.93297272 -62.67993164 35.61303711 C-64.10813125 37.03987923 -65.53654296 38.46650907 -66.96514893 39.89294434 C-70.81600496 43.73927062 -74.66372655 47.58871784 -78.51072621 51.43890071 C-82.54328182 55.47399911 -86.57828912 59.50664471 -90.61289978 63.53968811 C-97.37711371 70.30208761 -104.13922684 77.06658244 -110.90014648 83.83227539 C-118.72258455 91.6601723 -126.54864231 99.48443653 -134.3765555 107.306858 C-141.10382157 114.0295932 -147.82914597 120.75426614 -154.55283636 127.48057753 C-158.56636017 131.49566199 -162.58056059 135.51006371 -166.59651375 139.52271843 C-170.3638064 143.28713215 -174.128663 147.05396504 -177.89161682 150.82271576 C-179.27551803 152.2079437 -180.6602792 153.59231309 -182.04594231 154.97577858 C-183.93036717 156.857489 -185.81171362 158.74222299 -187.692276 160.62779236 C-188.24672947 161.1800151 -188.80118293 161.73223784 -189.37243801 162.30119461 C-192.15662174 165.04595717 -192.15662174 165.04595717 -194.25 168.3125 C-193.54230469 168.42464844 -192.83460938 168.53679687 -192.10546875 168.65234375 C-182.53844218 170.86414606 -174.46101557 176.90550011 -167.25 183.3125 C-166.61320313 183.86679688 -165.97640625 184.42109375 -165.3203125 184.9921875 C-153.07672887 196.36511629 -145.84163454 213.54841579 -144.9296875 230.05859375 C-144.2631736 250.07712675 -149.94133547 267.04224092 -163.25 282.3125 C-163.74628906 282.90289062 -164.24257812 283.49328125 -164.75390625 284.1015625 C-173.16311733 293.33272654 -187.03967155 302.14914811 -199.75 302.75 C-203.25 302.3125 -203.25 302.3125 -205.1875 301.1875 C-206.71849826 298.48573836 -207.1257742 296.41814495 -207.25 293.3125 C-205.83577427 290.19834636 -204.88581389 288.64422899 -201.82421875 287.046875 C-200.39529297 286.55960937 -200.39529297 286.55960937 -198.9375 286.0625 C-183.70520551 280.10604586 -173.45943711 271.55814205 -166.3125 256.5 C-160.73077686 243.59601639 -160.20866496 228.53712888 -165.25 215.3125 C-171.93241667 200.71580701 -181.05040922 190.58810464 -196.1875 184.5 C-198.67139536 183.68806001 -201.17377234 183.08754529 -203.71484375 182.46875 C-216.80542441 179.2604208 -226.1818232 174.51370279 -234.25 163.3125 C-240.2279655 151.3656077 -242.73957212 137.59046366 -246.02050781 124.72973633 C-251.74077384 99.62645922 -251.74077384 99.62645922 -268.58203125 81.171875 C-279.21595656 75.29994318 -289.92852604 73.49106256 -301.96875 75.84375 C-307.11972312 77.66640203 -310.87719282 80.41897286 -314.0625 84.8125 C-318.01618273 96.46545963 -313.44368511 108.6225746 -310.30078125 119.9609375 C-309.77337847 121.90697834 -309.24734025 123.85338943 -308.7225647 125.80014038 C-307.31169962 131.01972889 -305.88270163 136.23419262 -304.45035934 141.44792175 C-302.96360322 146.87272563 -301.49430158 152.30224927 -300.02368164 157.73144531 C-297.62107441 166.59430311 -295.20967178 175.45471916 -292.79199219 184.31347656 C-288.24150215 200.99175913 -283.74529492 217.68459816 -279.25534725 234.37926292 C-277.88873004 239.45998428 -276.51906056 244.53986797 -275.14622879 249.61891365 C-274.30212489 252.74225549 -273.45923005 255.86592289 -272.61652756 258.9896431 C-272.22935845 260.42364853 -271.84165143 261.85750886 -271.4533577 263.29121017 C-270.9269788 265.235081 -270.40276421 267.17953751 -269.87866211 269.12402344 C-269.5862413 270.20601013 -269.2938205 271.28799683 -268.99253845 272.402771 C-266.35323722 282.74520015 -265.90486611 292.70733459 -271.25 302.3125 C-275.92781161 308.12924501 -281.20672442 313.38057784 -286.51953125 318.609375 C-288.08281213 320.16002537 -289.64595934 321.7108105 -291.20898438 323.26171875 C-293.64744699 325.67526133 -296.08749684 328.08715801 -298.5300293 330.49658203 C-300.90589756 332.84231594 -303.27556325 335.19417563 -305.64453125 337.546875 C-306.74448174 338.62663605 -306.74448174 338.62663605 -307.86665344 339.72821045 C-308.54463486 340.40281311 -309.22261627 341.07741577 -309.92114258 341.77246094 C-310.51735916 342.36122009 -311.11357574 342.94997925 -311.7278595 343.55657959 C-314.16060804 346.36296494 -315.24178109 348.399253 -315.27539062 352.13378906 C-313.83391852 356.6023526 -311.19254522 358.97790311 -307.84375 362.171875 C-307.20385132 362.80232727 -306.56395264 363.43277954 -305.90466309 364.08233643 C-303.86460607 366.08788049 -301.80814656 368.07553963 -299.75 370.0625 C-297.69543833 372.06712607 -295.64438499 374.07524956 -293.59533691 376.08551025 C-292.32057243 377.33383251 -291.04194494 378.57822431 -289.75915527 379.81829834 C-284.36597134 385.06000948 -284.36597134 385.06000948 -283.9375 389.6875 C-284.25 393.3125 -284.25 393.3125 -285.8125 395.75 C-289.34449535 398.01409958 -291.11141434 398.0712407 -295.25 397.3125 C-301.75443974 392.72735786 -307.29467576 386.4852011 -312.92333984 380.87939453 C-314.37285817 379.43962742 -315.83273302 378.01091673 -317.29296875 376.58203125 C-331.78720964 362.25435537 -331.78720964 362.25435537 -332.5 351.5625 C-332.0366321 334.75769085 -311.97780333 320.95767156 -300.76489258 309.9987793 C-298.77522514 308.05157209 -296.79525052 306.09491585 -294.81640625 304.13671875 C-293.91481529 303.26305916 -293.91481529 303.26305916 -292.99501038 302.37174988 C-288.14515865 297.55155874 -284.65560426 293.42595484 -283.74047852 286.40136719 C-284.10559648 279.07128473 -286.46376109 271.92971425 -288.40234375 264.890625 C-288.85099885 263.22925877 -289.29864348 261.56761938 -289.74536133 259.9057312 C-290.7087187 256.33008755 -291.67907367 252.75644337 -292.65475464 249.18414307 C-294.20530052 243.50512163 -295.73666968 237.82103063 -297.26586914 232.13623047 C-302.02393141 214.4682628 -306.83035565 196.81374435 -311.68358517 179.17168427 C-314.01994088 170.67750649 -316.34374658 162.17995247 -318.66001225 153.68027496 C-320.32539686 147.57420823 -322.00951184 141.47371656 -323.70792961 135.37676048 C-324.76845099 131.5535425 -325.81189937 127.72580964 -326.8510437 123.89673233 C-327.33361272 122.13222039 -327.82309424 120.36958039 -328.32037354 118.60915756 C-331.96382397 105.69177591 -335.65551612 91.24034071 -329.5 78.48046875 C-324.31226983 69.48299924 -317.53364264 62.8215482 -307.5 59.375 C-293.87304448 56.28855281 -278.6447265 56.67067091 -266.25 63.3125 C-265.20457031 63.84359375 -264.15914063 64.3746875 -263.08203125 64.921875 C-247.72887018 73.2373759 -239.52283545 85.9107303 -234.29806519 102.29824829 C-233.4391401 105.3212176 -232.62964831 108.35279121 -231.83984375 111.39453125 C-231.23636391 113.64779604 -230.63284721 115.90105096 -230.02929688 118.15429688 C-229.10295872 121.65349552 -228.17998201 125.15356045 -227.25854492 128.65405273 C-226.35630943 132.06977763 -225.44226609 135.48218658 -224.52734375 138.89453125 C-224.25744125 139.93632034 -223.98753876 140.97810944 -223.7094574 142.0514679 C-221.11029885 152.02757245 -221.11029885 152.02757245 -214.25 159.3125 C-203.67121873 158.41827019 -193.74834155 143.92035293 -186.62329102 136.75170898 C-185.14928801 135.27250642 -183.67503819 133.79354976 -182.20056152 132.31481934 C-179.03725607 129.14160924 -175.87542371 125.96694121 -172.71466255 122.79119682 C-167.71224421 117.76562622 -162.70487101 112.74501242 -157.69651794 107.72535706 C-143.45927952 93.45475697 -129.22623144 79.17999629 -115.00366211 64.89477539 C-107.1398241 56.99637988 -99.27061094 49.10338129 -91.39541 41.21631485 C-86.41930874 36.23213274 -81.44983971 31.2414614 -76.48518193 26.24588192 C-73.39101686 23.13566855 -70.29053349 20.03181414 -67.18824005 16.92971039 C-65.75579775 15.49485412 -64.32591884 14.05743326 -62.89887047 12.6172123 C-45.04249181 -5.39703325 -23.46432541 -17.58073337 0 0 Z " fill="#2462EA" transform="translate(398.25,49.6875)"/>
<path d="M0 0 C5.65995901 3.31299341 10.27290679 7.72397259 14.90795898 12.31811523 C15.65754883 13.02258789 16.40713867 13.72706055 17.17944336 14.45288086 C22.91435271 20.11603978 25.74157168 25.5441741 26.25512695 33.65112305 C25.83604662 44.61460141 17.70784025 51.96084254 10.33959961 59.25878906 C9.48029343 60.12174591 8.62098724 60.98470276 7.73564148 61.87380981 C5.40024222 64.21587885 3.05840709 66.55110719 0.71299553 68.88312364 C-1.7513805 71.33609308 -4.20794549 73.7968645 -6.66564941 76.2565155 C-10.78940559 80.38115135 -14.91906616 84.4998001 -19.05249023 88.61474609 C-23.82132695 93.3623851 -28.58123962 98.11882743 -33.3363719 102.88018972 C-37.92777761 107.47730104 -42.52484976 112.06870373 -47.12471008 116.65735435 C-49.07526001 118.60327773 -51.02393457 120.55105049 -52.97111511 122.50034523 C-55.69112202 125.2225954 -58.41944787 127.93641307 -61.14868164 130.64941406 C-61.94989944 131.45310928 -62.75111725 132.2568045 -63.57661438 133.08485413 C-70.23851494 139.68369219 -76.38640205 145.13061523 -86.20532227 145.13061523 C-94.49105566 144.46218632 -99.63813178 140.84652892 -105.3371582 135.08618164 C-106.25536598 134.1758593 -106.25536598 134.1758593 -107.19212341 133.24714661 C-109.20280676 131.24961044 -111.20238321 129.2413681 -113.20141602 127.23217773 C-114.60008669 125.83552904 -115.99920236 124.43932584 -117.39874268 123.04354858 C-120.32533848 120.12136877 -123.24645663 117.19384903 -126.16381836 114.26245117 C-129.90179857 110.50736396 -133.65310673 106.76592673 -137.4086113 103.02837563 C-140.29822269 100.14960794 -143.18064673 97.26372919 -146.06095123 94.37565231 C-147.44143791 92.99316609 -148.82415192 91.61290024 -150.20912933 90.23491287 C-152.14327666 88.30839107 -154.06753515 86.37250145 -155.98950195 84.43383789 C-156.56198166 83.86743088 -157.13446136 83.30102386 -157.72428894 82.717453 C-162.74455258 77.61616837 -164.19183205 73.83093254 -164.21704102 66.75561523 C-164.23379883 65.67538086 -164.25055664 64.59514648 -164.26782227 63.48217773 C-163.29826675 54.53724617 -158.30343583 49.93809059 -152.09204102 43.88061523 C-150.89998047 42.67791992 -150.89998047 42.67791992 -149.68383789 41.45092773 C-143.60748172 35.43990872 -139.00425534 31.71828007 -130.15454102 31.56811523 C-129.02532227 31.52557617 -127.89610352 31.48303711 -126.73266602 31.43920898 C-115.06548022 33.5464456 -107.17180011 43.38155247 -99.27954102 51.50561523 C-98.07345599 52.73180708 -96.86643114 53.95707525 -95.65844727 55.18139648 C-92.72954232 58.15393904 -89.813612 61.13866474 -86.90454102 64.13061523 C-83.99107509 62.81754274 -81.95944312 61.41879935 -79.74047852 59.12670898 C-79.17586914 58.55114258 -78.61125977 57.97557617 -78.02954102 57.38256836 C-77.16329102 56.48441406 -77.16329102 56.48441406 -76.27954102 55.56811523 C-75.12293951 54.37712139 -73.96418324 53.18821519 -72.80297852 52.00170898 C-72.29428223 51.47504639 -71.78558594 50.94838379 -71.26147461 50.40576172 C-68.97892574 48.26079002 -67.73308228 48.11473943 -64.52954102 47.81811523 C-60.90454102 48.13061523 -60.90454102 48.13061523 -58.52954102 49.81811523 C-56.65462242 52.48626862 -55.90454102 53.85605319 -55.90454102 57.13061523 C-58.43041961 61.37186191 -61.32852589 64.80201744 -64.81860352 68.27514648 C-65.74415039 69.19875977 -66.66969727 70.12237305 -67.62329102 71.07397461 C-68.10024414 71.54472412 -68.57719727 72.01547363 -69.06860352 72.50048828 C-70.53802011 73.95148806 -71.99911637 75.41049297 -73.45922852 76.87084961 C-81.50248755 84.86355743 -81.50248755 84.86355743 -85.52954102 85.63061523 C-95.15907544 84.20401754 -104.59499587 70.51161645 -111.27954102 63.75561523 C-113.80532538 61.20327694 -116.33438679 58.65425163 -118.86547852 56.10717773 C-119.44252533 55.52183258 -120.01957214 54.93648743 -120.61410522 54.33340454 C-124.46904005 50.39458492 -124.46904005 50.39458492 -129.52954102 48.63061523 C-134.69440961 49.39578095 -137.32806891 52.50446991 -140.90454102 56.13061523 C-141.81719727 57.01040039 -141.81719727 57.01040039 -142.74829102 57.90795898 C-145.58078907 60.85402418 -146.79064954 62.17375781 -147.2910614 66.37796021 C-146.8105087 71.04355765 -144.98535603 73.02423803 -141.75146484 76.1418457 C-141.20354279 76.69721512 -140.65562073 77.25258453 -140.09109497 77.82478333 C-138.28130163 79.65005133 -136.44754484 81.44889953 -134.61157227 83.24780273 C-133.34435611 84.51211469 -132.07839725 85.77768798 -130.81364441 87.04446411 C-128.16190052 89.69299315 -125.49870251 92.32923803 -122.82617188 94.95678711 C-119.4020022 98.32426051 -116.00261779 101.7154849 -112.61082935 105.11553764 C-109.99952583 107.72963937 -107.37813442 110.3334226 -104.75330162 112.93393326 C-103.49609153 114.18093544 -102.24142251 115.43050493 -100.9893589 116.68267441 C-99.23749707 118.43056739 -97.47314581 120.16477344 -95.70458984 121.89575195 C-95.18957413 122.41415146 -94.67455841 122.93255096 -94.14393616 123.46665955 C-91.21807704 126.29860601 -89.07114013 128.15557907 -84.90454102 128.13061523 C-81.44280265 126.30182739 -78.7362189 124.21529601 -75.96917725 121.462677 C-75.22330353 120.72533325 -74.47742981 119.9879895 -73.70895386 119.228302 C-72.90563629 118.42407806 -72.10231873 117.61985413 -71.2746582 116.79125977 C-70.41722015 115.94053894 -69.5597821 115.08981812 -68.67636108 114.21331787 C-66.33387621 111.88654646 -63.99601719 109.55532708 -61.66074276 107.22133112 C-60.20063724 105.76264972 -58.73911585 104.3054027 -57.27707672 102.84865952 C-52.17452815 97.76458999 -47.07714841 92.67540386 -41.98461914 87.58129883 C-37.23976653 82.83524309 -32.4838551 78.10047296 -27.72265506 73.37082207 C-23.63135115 69.30566428 -19.54779007 65.23283786 -15.47017789 61.15394676 C-13.03628754 58.7195466 -10.5993958 56.28834981 -8.15468597 53.86481094 C-5.43085053 51.1639254 -2.72318539 48.44718175 -0.0168457 45.72875977 C0.79456879 44.92858429 1.60598328 44.12840881 2.44198608 43.3039856 C3.17658051 42.5610022 3.91117493 41.8180188 4.66802979 41.05252075 C5.30955616 40.41208391 5.95108253 39.77164707 6.6120491 39.11180305 C8.38447523 36.74461574 8.85381693 35.06487408 9.09545898 32.13061523 C6.09305419 26.12580564 0.11306146 19.13941647 -5.90454102 16.13061523 C-8.86278411 15.56714036 -10.94199134 15.5247348 -13.54907227 17.16577148 C-17.10115026 20.1916157 -20.28813376 23.53066432 -23.47094727 26.93530273 C-24.11684814 27.61262451 -24.76274902 28.28994629 -25.42822266 28.98779297 C-26.72923425 30.3572704 -28.01172491 31.74462359 -29.2734375 33.15039062 C-33.76218352 37.8701794 -33.76218352 37.8701794 -37.06665039 38.62353516 C-40.39686413 38.6949941 -42.56852598 38.34062463 -45.40454102 36.56811523 C-47.65366924 32.91328187 -47.79709135 31.38739373 -46.90454102 27.13061523 C-44.29074655 23.4190271 -41.11228915 20.32951441 -37.90454102 17.13061523 C-36.84355198 16.01439754 -35.7850549 14.89580712 -34.72875977 13.77514648 C-25.61511945 4.20960126 -14.46961878 -6.60509069 0 0 Z " fill="#2462EB" transform="translate(291.904541015625,0.869384765625)"/>
<path d="M0 0 C2.84546754 1.87939392 5.12575676 4.18965391 7.4921875 6.6328125 C8.16420197 7.30287323 8.83621643 7.97293396 9.52859497 8.66329956 C10.94029424 10.07898558 12.3434037 11.50328351 13.73828125 12.93554688 C15.86848262 15.11832177 18.02888488 17.26730286 20.1953125 19.4140625 C21.56701855 20.79758376 22.93687499 22.18294179 24.3046875 23.5703125 C25.26868973 24.52854416 25.26868973 24.52854416 26.25216675 25.50613403 C30.09872787 29.49639808 32.12681872 32.47265323 33 38 C31.47601225 41.60944467 30.28375102 42.81083265 27 45 C22.28869371 45.09544348 19.63066266 44.0154167 16.17602539 40.98413086 C14.80020411 39.66117936 13.44153588 38.32023019 12.09765625 36.96484375 C11.3750914 36.2527626 10.65252655 35.54068146 9.9080658 34.80702209 C8.38877191 33.30054474 6.87714602 31.78629957 5.37280273 30.26489258 C3.06970814 27.94476146 0.73176784 25.66440838 -1.61132812 23.38476562 C-3.08559567 21.91372214 -4.55767795 20.44048468 -6.02734375 18.96484375 C-6.72721909 18.28743637 -7.42709442 17.61002899 -8.1481781 16.91209412 C-11.33354967 13.6330625 -13.42329056 11.3636959 -13.56079102 6.66235352 C-13 3 -13 3 -11 0.4375 C-7.08863929 -1.43669367 -4.04871655 -1.28707881 0 0 Z " fill="#2462EA" transform="translate(157,390)"/>
</svg>
