<?xml version="1.0" encoding="UTF-8"?>
<svg version="1.1" xmlns="http://www.w3.org/2000/svg" width="512" height="512">
<path d="M0 0 C1.11273788 -0.00744736 1.11273788 -0.00744736 2.24795532 -0.01504517 C4.7026665 -0.02965249 7.15731304 -0.03646669 9.61206055 -0.04199219 C11.31975811 -0.04774519 13.02745566 -0.0535029 14.7351532 -0.05926514 C18.31709087 -0.06977131 21.89900612 -0.07561636 25.48095703 -0.07910156 C30.06419081 -0.08458293 34.647127 -0.10860483 39.23026752 -0.13707352 C42.75879269 -0.15572532 46.28724658 -0.16090687 49.81581688 -0.16243744 C51.50506401 -0.16545918 53.19431004 -0.17347157 54.88350868 -0.18662262 C57.2506923 -0.20373523 59.6171541 -0.20179034 61.984375 -0.1953125 C63.02495811 -0.20913467 63.02495811 -0.20913467 64.08656311 -0.22323608 C69.50343892 -0.17695302 73.51455846 1.19884417 77.54956055 4.84472656 C78.02780273 5.42351563 78.50604492 6.00230469 78.9987793 6.59863281 C79.48991211 7.17484375 79.98104492 7.75105469 80.48706055 8.34472656 C83.16998979 12.40844675 82.87458593 16.9860705 82.92456055 21.70800781 C82.93263229 22.43804016 82.94070404 23.16807251 82.94902039 23.92022705 C82.96282257 25.46339572 82.97356194 27.00659443 82.98144531 28.54980469 C82.99294941 30.11695394 83.01337661 31.68406449 83.04296875 33.25097656 C83.35092335 49.57429085 83.35092335 49.57429085 78.6862793 56.16113281 C76.9050293 58.00097656 76.9050293 58.00097656 75.1862793 59.09863281 C74.6190918 59.47890625 74.0519043 59.85917969 73.4675293 60.25097656 C69.03059066 62.51809653 65.94612225 62.16113281 60.6862793 62.16113281 C61.0162793 69.09113281 61.3462793 76.02113281 61.6862793 83.16113281 C64.4500293 83.69738281 67.2137793 84.23363281 70.0612793 84.78613281 C84.78174695 87.84720013 98.0414511 92.63715633 111.6237793 99.09863281 C112.65390137 99.58847656 113.68402344 100.07832031 114.74536133 100.58300781 C156.65099971 121.05310538 189.72370636 159.04204105 205.3737793 202.84863281 C207.7557156 209.78362128 209.7587537 216.78890807 211.4987793 223.91113281 C211.69366943 224.70092529 211.88855957 225.49071777 212.08935547 226.30444336 C215.15842682 239.6208856 216.09985829 253.03729237 216.0612793 266.66113281 C216.06046356 267.76065277 216.06046356 267.76065277 216.05963135 268.88238525 C215.91319953 312.17817508 199.81054585 355.99095693 169.9753418 387.71972656 C168.02900668 389.79559593 166.19485477 391.91423933 164.3737793 394.09863281 C155.70995718 404.0001438 145.72734055 412.0623564 134.6862793 419.16113281 C133.64858398 419.83789062 132.61088867 420.51464844 131.54174805 421.21191406 C90.37793827 447.35169462 40.37917578 456.92701236 -7.47338867 446.79833984 C-35.0762745 440.60584096 -64.68416773 428.92861851 -85.52401733 409.05311584 C-89.02388302 406.67949915 -91.81926806 406.60579307 -95.90209961 406.6628418 C-96.6490358 406.657323 -97.39597198 406.6518042 -98.1655426 406.64611816 C-99.7805888 406.63682074 -101.39570831 406.63667435 -103.01076126 406.64471245 C-105.56633351 406.65735544 -108.12082787 406.6460432 -110.67636108 406.62867737 C-115.17645641 406.60199623 -119.67628676 406.59638122 -124.17645264 406.59777832 C-131.38637584 406.60000867 -138.5959724 406.58596629 -145.80576706 406.54219246 C-148.32475643 406.53233622 -150.84323413 406.54107858 -153.36221313 406.55088806 C-154.90285582 406.54474577 -156.4434957 406.53783468 -157.98413086 406.5300293 C-158.68549667 406.53774857 -159.38686249 406.54546783 -160.10948181 406.55342102 C-162.99162964 406.52321554 -164.85680156 406.49861534 -167.21713257 404.75526428 C-168.58470638 402.76719567 -169.1708052 401.5906963 -169.3137207 399.16113281 C-167.05218224 394.53036358 -167.05218224 394.53036358 -164.3137207 393.16113281 C-162.37400692 393.04107735 -160.43028454 392.98379937 -158.48706055 392.95581055 C-157.26594574 392.93586533 -156.04483093 392.9159201 -154.78671265 392.89537048 C-153.44936247 392.87838625 -152.11201095 392.86150744 -150.7746582 392.84472656 C-149.40987518 392.82415679 -148.04509852 392.80316031 -146.68032837 392.78175354 C-143.08664097 392.72653522 -139.49289611 392.67712495 -135.89910889 392.62890625 C-132.23257324 392.57868944 -128.56612114 392.52300432 -124.8996582 392.46777344 C-117.70441644 392.36019481 -110.50910524 392.25874924 -103.3137207 392.16113281 C-104.02845551 391.45353569 -104.02845551 391.45353569 -104.75762939 390.73164368 C-105.69853424 389.79629036 -105.69853424 389.79629036 -106.65844727 388.84204102 C-107.27931213 388.2259346 -107.900177 387.60982819 -108.53985596 386.97505188 C-120.43788436 374.80836295 -129.12792522 359.07004199 -136.5637207 343.91113281 C-137.12736328 342.79061523 -137.12736328 342.79061523 -137.70239258 341.64746094 C-142.31565753 331.91722966 -145.162598 321.43305361 -148.3137207 311.16113281 C-149.27172073 311.15526657 -150.22972076 311.14940033 -151.2167511 311.14335632 C-160.23697858 311.08618855 -169.2569636 311.01345839 -178.27694416 310.9254179 C-182.91442954 310.88065541 -187.55182588 310.84141241 -192.18945312 310.81469727 C-196.66351109 310.78872271 -201.13722746 310.74836228 -205.61107445 310.69794655 C-207.31948796 310.68123812 -209.02796061 310.66974866 -210.73644447 310.66351891 C-213.12625725 310.65392074 -215.51518822 310.62591456 -217.90478516 310.59350586 C-218.6140062 310.59494095 -219.32322723 310.59637604 -220.05393982 310.59785461 C-222.9274246 310.54259785 -224.8527442 310.49251519 -227.22599792 308.78645325 C-228.71973269 306.55445289 -229.11801491 304.83577863 -229.3137207 302.16113281 C-228.33641852 299.45475752 -227.90859625 298.45857059 -225.3137207 297.16113281 C-222.97522537 297.06892631 -220.63401028 297.0436408 -218.29370117 297.04760742 C-217.21061676 297.04738838 -217.21061676 297.04738838 -216.10565186 297.04716492 C-213.7140403 297.04786274 -211.32250619 297.05564906 -208.9309082 297.06347656 C-207.27466881 297.0653412 -205.61842886 297.06676489 -203.96218872 297.06776428 C-199.59904462 297.07158583 -195.23593371 297.08141303 -190.87280273 297.09246826 C-186.42212371 297.10269017 -181.97143933 297.10726358 -177.52075195 297.11230469 C-168.78505962 297.12303561 -160.04939429 297.1401077 -151.3137207 297.16113281 C-151.45460617 296.09436813 -151.59549164 295.02760345 -151.74064636 293.92851257 C-151.92557964 292.49785583 -152.11032826 291.06717521 -152.29492188 289.63647461 C-152.38779228 288.93707512 -152.48066269 288.23767563 -152.57634735 287.51708221 C-153.49657037 280.3280264 -153.65769201 273.22314079 -153.6262207 265.97363281 C-153.62473022 265.30847656 -153.62323975 264.64332031 -153.6217041 263.95800781 C-153.55241294 246.61660112 -150.90482709 230.79493722 -146.3137207 214.16113281 C-146.86860168 214.17001526 -147.42348267 214.17889771 -147.99517822 214.18804932 C-153.77003682 214.27653875 -159.54470286 214.33687335 -165.32006836 214.38085938 C-167.47542137 214.40097557 -169.63071981 214.42827206 -171.78588867 214.46289062 C-174.88384465 214.51140767 -177.98107916 214.53410154 -181.0793457 214.55175781 C-182.04302063 214.57240295 -183.00669556 214.5930481 -183.99957275 214.61431885 C-190.65788734 214.61655243 -190.65788734 214.61655243 -193.95336914 212.328125 C-195.3137207 210.16113281 -195.3137207 210.16113281 -195.3137207 207.09863281 C-194.15430219 203.69284093 -193.35004786 202.96872274 -190.3137207 201.16113281 C-187.97247314 200.80036926 -187.97247314 200.80036926 -185.36157227 200.82055664 C-183.89050018 200.82089653 -183.89050018 200.82089653 -182.38970947 200.82124329 C-181.33853943 200.83672714 -180.28736938 200.852211 -179.2043457 200.86816406 C-178.12239929 200.87240891 -177.04045288 200.87665375 -175.92572021 200.88102722 C-172.4714668 200.89781436 -169.01779766 200.93546754 -165.5637207 200.97363281 C-163.22128121 200.98867956 -160.87883258 201.00236798 -158.53637695 201.01464844 C-152.79529232 201.04771801 -147.05454826 201.09791815 -141.3137207 201.16113281 C-141.128564 200.50528702 -140.94340729 199.84944122 -140.75263977 199.17372131 C-139.3658339 194.38688366 -137.93425968 189.89800099 -135.60668945 185.46972656 C-135.10202148 184.50486328 -134.59735352 183.54 -134.07739258 182.54589844 C-133.55725586 181.57330078 -133.03711914 180.60070312 -132.5012207 179.59863281 C-131.99268555 178.62216797 -131.48415039 177.64570313 -130.96020508 176.63964844 C-127.75075702 170.55837486 -124.25278744 164.79702829 -120.3137207 159.16113281 C-122.13637805 155.20446511 -124.72539289 152.48614896 -127.8137207 149.47363281 C-128.31258789 148.97541016 -128.81145508 148.4771875 -129.32543945 147.96386719 C-132.06525416 145.22353985 -132.06525416 145.22353985 -135.3137207 143.16113281 C-135.3137207 143.82113281 -135.3137207 144.48113281 -135.3137207 145.16113281 C-139.86686799 148.50010749 -143.36071897 150.30539179 -149.0012207 150.47363281 C-150.21358398 150.52970703 -150.21358398 150.52970703 -151.45043945 150.58691406 C-159.31558956 149.41733513 -164.54883028 144.52317084 -169.8762207 138.97363281 C-170.5273584 138.30887939 -171.17849609 137.64412598 -171.84936523 136.95922852 C-185.43229911 122.92784979 -185.43229911 122.92784979 -185.5637207 114.91113281 C-185.43425029 107.24250044 -183.03288939 103.7637978 -177.6887207 98.41113281 C-176.49375977 97.27417969 -176.49375977 97.27417969 -175.2746582 96.11425781 C-173.25596171 94.31071543 -173.25596171 94.31071543 -172.3137207 92.16113281 C-171.6537207 92.16113281 -170.9937207 92.16113281 -170.3137207 92.16113281 C-170.3137207 91.50113281 -170.3137207 90.84113281 -170.3137207 90.16113281 C-168.66369242 88.80726346 -166.996282 87.47435139 -165.3137207 86.16113281 C-164.9837207 85.50113281 -164.6537207 84.84113281 -164.3137207 84.16113281 C-163.6537207 84.16113281 -162.9937207 84.16113281 -162.3137207 84.16113281 C-162.3137207 83.50113281 -162.3137207 82.84113281 -162.3137207 82.16113281 C-161.6537207 82.16113281 -160.9937207 82.16113281 -160.3137207 82.16113281 C-159.8187207 80.67613281 -159.8187207 80.67613281 -159.3137207 79.16113281 C-158.6537207 79.16113281 -157.9937207 79.16113281 -157.3137207 79.16113281 C-156.8187207 77.67613281 -156.8187207 77.67613281 -156.3137207 76.16113281 C-155.6537207 76.16113281 -154.9937207 76.16113281 -154.3137207 76.16113281 C-153.8187207 74.67613281 -153.8187207 74.67613281 -153.3137207 73.16113281 C-152.6537207 73.16113281 -151.9937207 73.16113281 -151.3137207 73.16113281 C-151.0662207 72.57460937 -150.8187207 71.98808594 -150.5637207 71.38378906 C-149.12989575 68.83426906 -147.56679266 67.44996216 -145.3137207 65.59863281 C-142.75599608 63.48756966 -141.1805857 61.96143031 -139.3137207 59.16113281 C-138.6537207 59.16113281 -137.9937207 59.16113281 -137.3137207 59.16113281 C-137.1280957 58.60425781 -136.9424707 58.04738281 -136.7512207 57.47363281 C-134.14347486 53.27856341 -129.94248021 50.70405265 -125.3137207 49.16113281 C-123.71378627 49.0179373 -122.10727758 48.94073755 -120.5012207 48.91113281 C-119.66977539 48.88535156 -118.83833008 48.85957031 -117.98168945 48.83300781 C-112.06128859 49.56113911 -108.1245263 52.96782965 -104.02075195 57.05566406 C-103.54804367 57.52550217 -103.07533539 57.99534027 -102.58830261 58.47941589 C-101.59733561 59.46835414 -100.61009571 60.46104009 -99.62646484 61.45727539 C-98.13020038 62.96961039 -96.61859219 64.46525849 -95.10473633 65.95996094 C-94.13827827 66.92840164 -93.17275136 67.89777266 -92.20825195 68.86816406 C-91.34047119 69.73932861 -90.47269043 70.61049316 -89.57861328 71.50805664 C-85.12266229 76.72772026 -83.80931185 81.06318579 -84.02075195 87.75878906 C-84.60130085 92.51928998 -86.70605088 96.06884439 -90.3137207 99.16113281 C-88.70361544 103.23489312 -85.775498 105.9262035 -82.6887207 108.91113281 C-82.1730957 109.41773438 -81.6574707 109.92433594 -81.1262207 110.44628906 C-79.85988732 111.68917183 -78.58740631 112.92578557 -77.3137207 114.16113281 C-73.03791038 112.63118185 -69.33527674 110.42604289 -65.5012207 108.03613281 C-44.82013565 95.43643014 -22.46996893 86.18066384 1.6862793 83.16113281 C1.6862793 76.23113281 1.6862793 69.30113281 1.6862793 62.16113281 C-0.6237207 62.16113281 -2.9337207 62.16113281 -5.3137207 62.16113281 C-11.61799024 60.09594107 -15.50080411 57.17033329 -18.92944336 51.47924805 C-20.51410405 47.68081358 -20.74770842 44.42770048 -20.7121582 40.38378906 C-20.71646347 39.28942787 -20.71646347 39.28942787 -20.72085571 38.17295837 C-20.72288739 36.63751444 -20.7174205 35.10204408 -20.70483398 33.56665039 C-20.68878935 31.23361493 -20.70469974 28.90231759 -20.72387695 26.56933594 C-20.72189391 25.0699832 -20.71804896 23.57063154 -20.7121582 22.07128906 C-20.7182309 21.38253189 -20.72430359 20.69377472 -20.7305603 19.98414612 C-20.64921626 14.29989555 -19.40129437 9.54286459 -15.5949707 5.20019531 C-15.0071582 4.73355469 -14.4193457 4.26691406 -13.8137207 3.78613281 C-13.2259082 3.30402344 -12.6380957 2.82191406 -12.0324707 2.32519531 C-8.24578056 -0.23942665 -4.38276071 0.00700106 0 0 Z M-7.3137207 15.16113281 C-7.93326985 18.39947538 -7.93326985 18.39947538 -7.8449707 22.12988281 C-7.84879761 22.80660034 -7.85262451 23.48331787 -7.85656738 24.18054199 C-7.85928601 25.60947154 -7.85192787 27.03845088 -7.83520508 28.46728516 C-7.81378934 30.65412367 -7.83500257 32.83767767 -7.8605957 35.02441406 C-7.85795241 36.41374423 -7.85282739 37.80307235 -7.8449707 39.19238281 C-7.84045898 40.45630859 -7.83594727 41.72023438 -7.83129883 43.02246094 C-7.61873859 46.16139809 -7.61873859 46.16139809 -5.70166016 47.83303833 C-2.52691987 49.59872592 -0.21648188 49.54213055 3.41088867 49.54931641 C4.07804398 49.55457336 4.74519928 49.55983032 5.43257141 49.56524658 C7.63196409 49.57842142 9.8306296 49.56971807 12.0300293 49.55957031 C13.5617283 49.56159179 15.09342636 49.56450384 16.62512207 49.56826782 C19.8329384 49.57268774 23.04050387 49.56627102 26.24829102 49.55224609 C30.35758177 49.53515415 34.4662847 49.54499714 38.57555389 49.56296349 C41.7377362 49.57381044 44.89977942 49.57035085 48.06196594 49.56258011 C49.57701182 49.56058061 51.09207037 49.5630286 52.60710144 49.57001877 C54.72563058 49.57764856 56.84321132 49.56600914 58.96166992 49.54931641 C60.16650024 49.54692963 61.37133057 49.54454285 62.6126709 49.54208374 C65.95142016 49.12827057 67.36148359 48.5625283 69.6862793 46.16113281 C70.30530298 43.03738659 70.30530298 43.03738659 70.2175293 39.44628906 C70.2213562 38.79413925 70.22518311 38.14198944 70.22912598 37.47007751 C70.23184457 36.09242202 70.22448667 34.71471487 70.20776367 33.3371582 C70.18638148 31.23368486 70.20754253 29.13363945 70.2331543 27.03027344 C70.23051033 25.68977114 70.22538391 24.34927096 70.2175293 23.00878906 C70.21301758 21.79199463 70.20850586 20.5752002 70.20385742 19.3215332 C69.57184875 15.46240479 68.75740195 14.51961905 65.6862793 12.16113281 C62.53113742 11.56206592 62.53113742 11.56206592 58.96166992 11.65942383 C57.96093697 11.65131935 57.96093697 11.65131935 56.93998718 11.64305115 C54.74037964 11.63057016 52.54208275 11.6470486 50.3425293 11.66503906 C48.81083101 11.66488406 47.27913232 11.66339483 45.74743652 11.66062927 C42.53953685 11.65924558 39.33208445 11.67179778 36.12426758 11.69458008 C32.0149506 11.7229651 27.90637666 11.72022724 23.7970047 11.70748997 C20.63480294 11.70053073 17.47277253 11.70832478 14.31059265 11.72074699 C12.79555417 11.72525914 11.28049728 11.72560035 9.76545715 11.72168159 C7.64688492 11.71876684 5.529332 11.73528694 3.41088867 11.75708008 C2.20605835 11.76248306 1.00122803 11.76788605 -0.2401123 11.77345276 C-3.57708598 12.19435157 -4.99298554 12.75567219 -7.3137207 15.16113281 Z M-126.01573181 63.86073303 C-126.87066727 64.71533615 -127.72560272 65.56993927 -128.60644531 66.45043945 C-129.08539246 66.91858063 -129.5643396 67.3867218 -130.05780029 67.86904907 C-131.63100391 69.417297 -133.17341259 70.99264223 -134.71606445 72.57128906 C-135.80333797 73.65825254 -136.89194647 74.74388214 -137.98182678 75.82823181 C-140.25978584 78.10342383 -142.52318387 80.39191609 -144.77685547 82.69116211 C-147.66413896 85.6352186 -150.58150063 88.54710264 -153.50998592 91.45011234 C-155.76125181 93.68745665 -157.99751852 95.93931745 -160.22937202 98.1960125 C-161.29973181 99.2753938 -162.37428451 100.35063407 -163.45307732 101.42158699 C-164.95955882 102.92223519 -166.44516353 104.44089199 -167.92675781 105.96606445 C-168.77612411 106.82623672 -169.62549042 107.686409 -170.50059509 108.57264709 C-172.70800544 111.72402841 -172.8237056 113.38914646 -172.3137207 117.16113281 C-170.60587733 119.78781951 -170.60587733 119.78781951 -168.1496582 122.12207031 C-167.27438477 123.00507813 -166.39911133 123.88808594 -165.49731445 124.79785156 C-164.57047852 125.70148438 -163.64364258 126.60511719 -162.6887207 127.53613281 C-161.33327148 128.92638672 -161.33327148 128.92638672 -159.95043945 130.34472656 C-159.06743164 131.22 -158.18442383 132.09527344 -157.2746582 132.99707031 C-156.46818848 133.79677246 -155.66171875 134.59647461 -154.83081055 135.42041016 C-151.63412448 137.63111546 -150.14617557 137.6245309 -146.3137207 137.16113281 C-143.59997167 135.367824 -143.59997167 135.367824 -141.11865234 132.77416992 C-140.63824493 132.30748901 -140.15783752 131.84080811 -139.66287231 131.35998535 C-138.08422579 129.81784845 -136.52866131 128.25464268 -134.97387695 126.68847656 C-133.88219395 125.6059179 -132.78977032 124.52410563 -131.69664001 123.44300842 C-129.41126614 121.17549065 -127.13758758 118.89697932 -124.87109375 116.6105957 C-121.96678833 113.68329515 -119.03196572 110.78893113 -116.08713627 107.9024725 C-113.82448936 105.67653451 -111.58077033 103.43224952 -109.34213066 101.18219185 C-108.26738669 100.10714133 -107.18642003 99.03827428 -106.0991993 97.97584343 C-104.58050226 96.48694736 -103.08959718 94.97474133 -101.60302734 93.45385742 C-100.74842422 92.59892197 -99.89382111 91.74398651 -99.01332092 90.86314392 C-96.96849009 88.17350423 -96.96849009 88.17350423 -97.44221497 84.48228455 C-98.40623544 80.80857577 -99.4531846 79.25025333 -102.1027832 76.57519531 C-102.88008789 75.79015625 -103.65739258 75.00511719 -104.45825195 74.19628906 C-105.68608398 73.00326172 -105.68608398 73.00326172 -106.9387207 71.78613281 C-107.73407227 70.96757813 -108.52942383 70.14902344 -109.34887695 69.30566406 C-110.13391602 68.52835937 -110.91895508 67.75105469 -111.7277832 66.95019531 C-112.4388623 66.24588379 -113.14994141 65.54157227 -113.88256836 64.81591797 C-117.97468831 62.03058065 -121.71294596 61.15422463 -126.01573181 63.86073303 Z M14.6862793 62.16113281 C14.6862793 68.43113281 14.6862793 74.70113281 14.6862793 81.16113281 C25.9062793 81.49113281 37.1262793 81.82113281 48.6862793 82.16113281 C48.6862793 75.56113281 48.6862793 68.96113281 48.6862793 62.16113281 C37.4662793 62.16113281 26.2462793 62.16113281 14.6862793 62.16113281 Z M-22.3137207 102.16113281 C-22.97259277 102.3707666 -23.63146484 102.58040039 -24.31030273 102.79638672 C-41.97931213 108.55888815 -58.7806469 117.59326771 -73.3137207 129.16113281 C-73.85931641 129.59393555 -74.40491211 130.02673828 -74.96704102 130.47265625 C-110.56993022 159.02588139 -134.84723178 200.0419782 -140.1328125 245.74902344 C-140.57196272 251.6043597 -140.55870762 257.47958866 -140.5637207 263.34863281 C-140.56439545 264.05844299 -140.56507019 264.76825317 -140.56576538 265.49957275 C-140.53777469 284.09951495 -138.0486286 301.45682392 -132.3137207 319.16113281 C-132.10408691 319.81855469 -131.89445312 320.47597656 -131.6784668 321.15332031 C-125.91490777 338.83000942 -116.87517119 355.61550577 -105.3137207 370.16113281 C-104.89155273 370.69609375 -104.46938477 371.23105469 -104.03442383 371.78222656 C-89.442728 390.08218794 -72.67872319 404.57868721 -52.3137207 416.16113281 C-51.18579102 416.80566406 -50.05786133 417.45019531 -48.89575195 418.11425781 C-11.61398226 438.48217319 34.22479004 443.49163379 75.09301758 432.22167969 C88.85343828 428.11752633 102.2487723 423.39617421 114.6862793 416.16113281 C115.66830322 415.59507324 115.66830322 415.59507324 116.67016602 415.01757812 C156.75043789 391.63023669 185.82615232 353.88367879 197.99462891 309.06176758 C209.6332141 264.01427197 201.91371808 217.0958283 178.78393555 176.98144531 C155.90201632 139.03491734 117.86761305 109.90491323 74.81787109 99.06616211 C73.9288208 98.85000244 73.03977051 98.63384277 72.1237793 98.41113281 C71.31013916 98.21237549 70.49649902 98.01361816 69.65820312 97.80883789 C57.03251614 94.90422023 44.43579907 93.79220356 31.4987793 93.84863281 C30.49338608 93.85136703 30.49338608 93.85136703 29.46768188 93.85415649 C11.47112022 93.93602572 -5.20155384 96.66036915 -22.3137207 102.16113281 Z M-103.9387207 111.53613281 C-105.52903478 113.06081602 -105.52903478 113.06081602 -105.3137207 115.16113281 C-105.9530957 115.42925781 -106.5924707 115.69738281 -107.2512207 115.97363281 C-109.64503757 117.04781033 -109.64503757 117.04781033 -110.3137207 120.16113281 C-110.9737207 120.16113281 -111.6337207 120.16113281 -112.3137207 120.16113281 C-112.3137207 120.82113281 -112.3137207 121.48113281 -112.3137207 122.16113281 C-113.3037207 122.49113281 -114.2937207 122.82113281 -115.3137207 123.16113281 C-117.02365504 124.78337821 -118.68719754 126.45526706 -120.3137207 128.16113281 C-121.64705404 129.49446615 -122.98038737 130.82779948 -124.3137207 132.16113281 C-122.70361544 136.23489312 -119.775498 138.9262035 -116.6887207 141.91113281 C-116.1730957 142.41773438 -115.6574707 142.92433594 -115.1262207 143.44628906 C-113.85988732 144.68917183 -112.58740631 145.92578557 -111.3137207 147.16113281 C-105.69068314 142.48646944 -100.51630516 137.48347614 -95.3762207 132.28613281 C-94.59698242 131.50238281 -93.81774414 130.71863281 -93.01489258 129.91113281 C-91.11217986 127.99674701 -89.211859 126.08005247 -87.3137207 124.16113281 C-92.04961825 118.56701475 -92.04961825 118.56701475 -97.0637207 113.22363281 C-97.63606445 112.63710937 -98.2084082 112.05058594 -98.7980957 111.44628906 C-100.97248126 109.60254461 -101.77871934 109.70843935 -103.9387207 111.53613281 Z " fill="#2462EB" transform="translate(281.313720703125,30.8388671875)"/>
<path d="M0 0 C0.69561035 0.16628906 1.3912207 0.33257812 2.10791016 0.50390625 C18.56158101 4.57678375 33.97939101 11.487979 48 21 C48.93457031 21.61746094 49.86914062 22.23492187 50.83203125 22.87109375 C71.78183872 37.57321582 87.63576206 57.76490741 98 81 C98.54269531 82.18722656 99.08539063 83.37445313 99.64453125 84.59765625 C107.26958204 102.33796429 110.23319249 120.73876348 110.25 139.9375 C110.25067474 140.6297467 110.25134949 141.32199341 110.25204468 142.03521729 C110.23559285 152.66494356 109.66057651 162.65929777 107 173 C106.83902832 173.6703125 106.67805664 174.340625 106.51220703 175.03125 C101.30838936 196.46637987 90.4106137 214.69598232 77 232 C76.53722656 232.6084375 76.07445312 233.216875 75.59765625 233.84375 C72.80376313 237.38079988 69.57293887 240.25161056 66.15234375 243.15625 C64.72491462 244.37902051 63.32050043 245.62921403 61.94140625 246.90625 C31.60715946 274.95847088 -6.73194478 283.56954281 -47 282 C-53.11967655 281.52820017 -59.04507136 280.46514687 -65 279 C-65.70479492 278.82839355 -66.40958984 278.65678711 -67.13574219 278.47998047 C-92.09188814 272.19318909 -113.30897821 259.66404257 -132 242 C-132.87269531 241.20335937 -133.74539062 240.40671875 -134.64453125 239.5859375 C-147.13272099 227.75878212 -155.94455585 213.58006068 -163 198 C-163.46921875 197.01 -163.9384375 196.02 -164.421875 195 C-167.1165969 189.01172912 -168.98804406 182.89023484 -170.6875 176.5625 C-170.89012451 175.81186279 -171.09274902 175.06122559 -171.30151367 174.2878418 C-180.60257445 137.9877068 -174.62560255 101.50820911 -157 69 C-156.50757813 68.08734375 -156.01515625 67.1746875 -155.5078125 66.234375 C-137.59818928 34.86723828 -106.45556729 11.63423281 -71.89794922 1.90991211 C-67.95154301 0.85145448 -63.98515417 -0.09951708 -60 -1 C-58.34871094 -1.37318359 -58.34871094 -1.37318359 -56.6640625 -1.75390625 C-38.3863109 -5.04574313 -18.03589096 -4.38279484 0 0 Z M-115 39 C-116.38548127 40.62357544 -117.73899994 42.27795633 -119 44 C-118.49025635 44.48355957 -117.9805127 44.96711914 -117.45532227 45.46533203 C-115.14456326 47.67190775 -112.85358653 49.89801261 -110.5625 52.125 C-109.76005859 52.88554687 -108.95761719 53.64609375 -108.13085938 54.4296875 C-107.36708984 55.17734375 -106.60332031 55.925 -105.81640625 56.6953125 C-105.10943604 57.37609863 -104.40246582 58.05688477 -103.67407227 58.75830078 C-101.59882099 61.5372066 -101.19078107 63.56011543 -101 67 C-102.625 69.4375 -102.625 69.4375 -105 71 C-108.81390612 70.65496164 -110.89883255 69.63339732 -113.6875 67.0625 C-114.36167969 66.44375 -115.03585938 65.825 -115.73046875 65.1875 C-119.88214086 61.18588833 -123.96018705 57.1143177 -128 53 C-148.43646854 68.00631173 -157.57953845 98.24646752 -161.51953125 122.16015625 C-161.97776016 125.82226206 -162.09106504 129.31426246 -162 133 C-161.19780029 133.01458252 -160.39560059 133.02916504 -159.5690918 133.04418945 C-155.94140301 133.11856719 -152.31464496 133.21526243 -148.6875 133.3125 C-147.42486328 133.33505859 -146.16222656 133.35761719 -144.86132812 133.38085938 C-143.04858398 133.4340332 -143.04858398 133.4340332 -141.19921875 133.48828125 C-140.08377686 133.51446533 -138.96833496 133.54064941 -137.8190918 133.56762695 C-135 134 -135 134 -133.10083008 135.30541992 C-132 137 -132 137 -132.1875 140.625 C-132.455625 141.73875 -132.72375 142.8525 -133 144 C-135.73678725 145.36839363 -138.04264424 145.21634818 -141.1015625 145.31640625 C-142.91914063 145.37924805 -142.91914063 145.37924805 -144.7734375 145.44335938 C-146.04445312 145.48267578 -147.31546875 145.52199219 -148.625 145.5625 C-149.90375 145.60568359 -151.1825 145.64886719 -152.5 145.69335938 C-155.66655348 145.79969886 -158.83318753 145.90172833 -162 146 C-161.47399396 164.0279691 -157.05827291 180.90097216 -149 197 C-148.1646875 198.70929688 -148.1646875 198.70929688 -147.3125 200.453125 C-143.28798207 208.31584058 -138.44615237 215.08676395 -133 222 C-131.99609529 223.33039585 -130.99445265 224.66252413 -130 226 C-126.34859089 225.43309849 -124.8134298 224.10521686 -122.35546875 221.40234375 C-121.67806641 220.68369141 -121.00066406 219.96503906 -120.30273438 219.22460938 C-118.89601274 217.70358349 -117.49749336 216.17492928 -116.10742188 214.63867188 C-110.9033421 209.15887926 -110.9033421 209.15887926 -106.11328125 208.31640625 C-103 209 -103 209 -101 212 C-101.22226948 216.76030448 -102.39174659 218.99821797 -105.81640625 222.234375 C-106.58017578 222.97300781 -107.34394531 223.71164062 -108.13085938 224.47265625 C-108.93330078 225.22417969 -109.73574219 225.97570312 -110.5625 226.75 C-112.15126517 228.2612954 -113.73612737 229.77670817 -115.31640625 231.296875 C-116.02224854 231.96041992 -116.72809082 232.62396484 -117.45532227 233.30761719 C-119.2247135 234.86431286 -119.2247135 234.86431286 -119 237 C-118.34 237 -117.68 237 -117 237 C-117 237.66 -117 238.32 -117 239 C-96.66035319 257.68539144 -66.43597161 269.50284279 -39 269 C-38.9906543 268.23333008 -38.98130859 267.46666016 -38.97167969 266.67675781 C-38.91797227 263.20051897 -38.83432424 259.72562526 -38.75 256.25 C-38.73582031 255.0434375 -38.72164063 253.836875 -38.70703125 252.59375 C-38.67480469 251.43359375 -38.64257812 250.2734375 -38.609375 249.078125 C-38.58842773 248.00981445 -38.56748047 246.94150391 -38.54589844 245.84082031 C-37.87461179 242.34748784 -36.82690637 241.10900245 -34 239 C-30.8125 239.125 -30.8125 239.125 -28 240 C-26.63160637 242.73678725 -26.78365182 245.04264424 -26.68359375 248.1015625 C-26.62075195 249.91914063 -26.62075195 249.91914063 -26.55664062 251.7734375 C-26.51732422 253.04445313 -26.47800781 254.31546875 -26.4375 255.625 C-26.39431641 256.90375 -26.35113281 258.1825 -26.30664062 259.5 C-26.20030114 262.66655348 -26.09827167 265.83318753 -26 269 C-19.04838558 269.19063375 -12.6026522 268.89176316 -5.8125 267.375 C-4.99861816 267.19606201 -4.18473633 267.01712402 -3.34619141 266.83276367 C18.12784355 261.87319452 37.37296995 251.38013409 54 237 C52.64937713 233.97503419 51.14970763 231.9194306 48.77734375 229.6171875 C48.15666016 229.00746094 47.53597656 228.39773438 46.89648438 227.76953125 C45.92678711 226.83173828 45.92678711 226.83173828 44.9375 225.875 C43.6527607 224.62463926 42.37010319 223.37213484 41.08984375 222.1171875 C40.52128662 221.56659668 39.95272949 221.01600586 39.36694336 220.44873047 C36.12846241 217.01648436 36.92770757 213.48213045 37 209 C43.64963013 208.16879623 43.64963013 208.16879623 46.9609375 210.20703125 C49.07874615 212.05255021 51.04009141 213.9870253 53 216 C53.89976562 216.88816406 54.79953125 217.77632812 55.7265625 218.69140625 C58.16944561 221.1102046 60.59147727 223.5470578 63 226 C66.08969738 224.66465028 67.77538967 223.3759253 69.734375 220.6484375 C70.22220459 219.96998779 70.71003418 219.29153809 71.21264648 218.5925293 C71.71997314 217.86074463 72.2272998 217.12895996 72.75 216.375 C73.54289429 215.23961792 73.54289429 215.23961792 74.35180664 214.08129883 C79.36757701 206.73576987 83.3360594 199.08669852 87 191 C87.48082031 189.98679687 87.96164062 188.97359375 88.45703125 187.9296875 C92.21540753 179.59540293 94.16965777 170.91843226 96 162 C96.20109375 161.04867187 96.4021875 160.09734375 96.609375 159.1171875 C97.15781531 154.74063381 97.0783417 150.40454445 97 146 C95.79670044 145.98598145 95.79670044 145.98598145 94.5690918 145.97167969 C90.94126361 145.91806258 87.31473708 145.83439702 83.6875 145.75 C82.42486328 145.73582031 81.16222656 145.72164062 79.86132812 145.70703125 C78.65283203 145.67480469 77.44433594 145.64257812 76.19921875 145.609375 C75.08377686 145.58842773 73.96833496 145.56748047 72.8190918 145.54589844 C70 145 70 145 68.10083008 143.12597656 C67 141 67 141 67.1875 138.375 C68 136 68 136 70 134 C72.70556641 133.68115234 72.70556641 133.68115234 76.1015625 133.5859375 C77.31328125 133.54726563 78.525 133.50859375 79.7734375 133.46875 C81.04445313 133.4378125 82.31546875 133.406875 83.625 133.375 C84.90375 133.33632813 86.1825 133.29765625 87.5 133.2578125 C90.66652017 133.16328951 93.8330304 133.07773643 97 133 C97.67906332 105.78314214 85.79855746 78.90346812 69 58 C68.25234375 57.06414062 67.5046875 56.12828125 66.734375 55.1640625 C66.16203125 54.44992188 65.5896875 53.73578125 65 53 C61.86813489 54.37817497 59.86382802 55.9439119 57.5390625 58.44140625 C56.90226563 59.10720703 56.26546875 59.77300781 55.609375 60.45898438 C54.28817481 61.85950859 52.97302999 63.26577044 51.6640625 64.67773438 C48.72806215 67.72916216 46.7838079 69.74028218 42.7109375 71.08984375 C40 71 40 71 37 69 C36.60740893 64.76001646 36.67509722 61.63266059 39 58 C39.66 58 40.32 58 41 58 C42.60270119 56.41561079 42.60270119 56.41561079 44.25 54.375 C46.54660073 51.65952241 48.87150775 49.08737736 51.4375 46.625 C54.23284557 44.37287237 54.23284557 44.37287237 54 42 C31.95104232 22.06007306 3.49914371 11.17055852 -26 10 C-26.01458252 10.80219971 -26.02916504 11.60439941 -26.04418945 12.4309082 C-26.11856719 16.05859699 -26.21526243 19.68535504 -26.3125 23.3125 C-26.34633789 25.20645508 -26.34633789 25.20645508 -26.38085938 27.13867188 C-26.41630859 28.34716797 -26.45175781 29.55566406 -26.48828125 30.80078125 C-26.51446533 31.91622314 -26.54064941 33.03166504 -26.56762695 34.1809082 C-27 37 -27 37 -28.30151367 38.87573242 C-31.05894414 40.70093974 -33.79883083 40.18119825 -37 40 C-38.00158069 36.6210018 -38.19578116 33.43723472 -38.31640625 29.921875 C-38.35830078 28.76171875 -38.40019531 27.6015625 -38.44335938 26.40625 C-38.48267578 25.1996875 -38.52199219 23.993125 -38.5625 22.75 C-38.60568359 21.52796875 -38.64886719 20.3059375 -38.69335938 19.046875 C-38.79937355 16.0313608 -38.90143936 13.01576552 -39 10 C-66.27336913 9.74700029 -94.18024454 21.79735664 -115 39 Z " fill="#2462EB" transform="translate(345,157)"/>
<path d="M0 0 C1.29837044 -0.00074776 1.29837044 -0.00074776 2.62297058 -0.00151062 C4.45285335 0.00082734 6.2827395 0.01053952 8.11254883 0.02709961 C10.89759486 0.05060927 13.68167732 0.04766857 16.46679688 0.04101562 C18.24870357 0.04659576 20.03060626 0.05370774 21.8125 0.0625 C22.63877396 0.06158859 23.46504791 0.06067719 24.31636047 0.05973816 C29.26591922 0.11965665 33.44623716 0.63471511 38.10546875 2.36328125 C39.51758749 5.18751872 39.34969939 7.22620546 39.10546875 10.36328125 C37.85546875 13.04125977 37.85546875 13.04125977 36.10546875 15.7421875 C35.46875244 16.74056641 34.83203613 17.73894531 34.17602539 18.76757812 C33.4927417 19.80978516 32.80945801 20.85199219 32.10546875 21.92578125 C30.72891011 24.0727522 29.3526061 26.21988642 27.9765625 28.3671875 C27.30995605 29.39730957 26.64334961 30.42743164 25.95654297 31.48876953 C23.64210503 35.0828334 21.39258811 38.71318281 19.16796875 42.36328125 C18.56082031 43.35328125 17.95367187 44.34328125 17.328125 45.36328125 C16.92464844 46.02328125 16.52117187 46.68328125 16.10546875 47.36328125 C16.71543701 47.3475708 17.32540527 47.33186035 17.95385742 47.31567383 C20.73346585 47.25308312 23.51292567 47.21421503 26.29296875 47.17578125 C27.25267578 47.15064453 28.21238281 47.12550781 29.20117188 47.09960938 C33.21127215 47.05798204 36.46197364 47.14561685 40.28125 48.4375 C42.10546875 50.36328125 42.10546875 50.36328125 42.74609375 53.640625 C41.95412981 58.24270811 39.96533464 60.64433655 36.85546875 63.92578125 C35.74957643 65.15196187 34.64412004 66.37853576 33.5390625 67.60546875 C32.96913574 68.22647461 32.39920898 68.84748047 31.81201172 69.48730469 C29.11484093 72.45226325 26.5181667 75.50088072 23.91796875 78.55078125 C23.16422974 79.42887451 23.16422974 79.42887451 22.39526367 80.32470703 C19.43578377 83.77735292 16.53183574 87.26798182 13.66796875 90.80078125 C7.43577692 98.47030741 0.89360856 105.87390357 -5.6015625 113.3203125 C-13.736756 122.65171869 -13.736756 122.65171869 -21.64453125 132.17578125 C-25.88134595 137.40352682 -30.30603973 142.44140029 -34.89453125 147.36328125 C-35.57773437 148.10835937 -36.2609375 148.8534375 -36.96484375 149.62109375 C-38.89453125 151.36328125 -38.89453125 151.36328125 -41.95703125 151.80078125 C-44.89453125 151.36328125 -44.89453125 151.36328125 -46.76953125 150.30078125 C-48.52802334 147.27226709 -48.12527582 144.8268534 -47.89453125 141.36328125 C-46.99190598 138.63231091 -46.0464208 136.1252208 -44.89453125 133.5078125 C-44.58278458 132.77171249 -44.2710379 132.03561249 -43.94984436 131.27720642 C-42.94262266 128.90509998 -41.91865553 126.54063229 -40.89453125 124.17578125 C-40.20228493 122.55235822 -39.51145116 120.92833214 -38.82202148 119.30371094 C-37.79770455 116.89031786 -36.77261372 114.47729954 -35.74278259 112.06625366 C-33.05981643 105.78299495 -30.47143979 99.46600895 -27.95703125 93.11328125 C-27.63412109 92.29964111 -27.31121094 91.48600098 -26.97851562 90.64770508 C-26.28135558 88.88721787 -25.58744241 87.12544511 -24.89453125 85.36328125 C-25.77189941 85.39470215 -25.77189941 85.39470215 -26.66699219 85.42675781 C-29.3259959 85.5100824 -31.9847248 85.56199022 -34.64453125 85.61328125 C-35.56492187 85.64679688 -36.4853125 85.6803125 -37.43359375 85.71484375 C-44.12621093 85.8118382 -44.12621093 85.8118382 -47.59765625 83.78515625 C-49.02865209 81.11281461 -49.25107452 79.48783556 -48.62011719 76.5234375 C-46.95505582 71.56635036 -44.42955947 66.98949797 -42.01953125 62.36328125 C-40.8250757 60.02563152 -39.63239915 57.68707203 -38.44140625 55.34765625 C-37.84263672 54.17525391 -37.24386719 53.00285156 -36.62695312 51.79492188 C-34.09173648 46.77307786 -31.6752003 41.69812074 -29.26953125 36.61328125 C-25.53057821 28.76442285 -21.78125094 20.92100958 -17.95703125 13.11328125 C-17.50827637 12.17774414 -17.05952148 11.24220703 -16.59716797 10.27832031 C-16.17064941 9.41432617 -15.74413086 8.55033203 -15.3046875 7.66015625 C-14.93480713 6.90057617 -14.56492676 6.14099609 -14.18383789 5.35839844 C-10.49893873 -0.34374054 -6.25763953 -0.06923952 0 0 Z M-2.89453125 13.36328125 C-6.67777441 20.90721522 -10.45933996 28.4519828 -14.23792267 35.99825191 C-15.9923554 39.50188888 -17.74753362 43.00514827 -19.50439453 46.50756836 C-21.19842122 49.88479167 -22.89051705 53.26297575 -24.58125305 56.64184761 C-25.22808007 57.93364761 -25.87561344 59.22509416 -26.52384949 60.51618767 C-27.42855135 62.31837944 -28.33055671 64.12192411 -29.23242188 65.92553711 C-29.74760376 66.95368027 -30.26278564 67.98182343 -30.7935791 69.04112244 C-31.96593099 71.08555865 -31.96593099 71.08555865 -31.89453125 72.36328125 C-31.06260254 72.40086548 -31.06260254 72.40086548 -30.21386719 72.43920898 C-27.69054282 72.55556052 -25.16755589 72.67810879 -22.64453125 72.80078125 C-21.77183594 72.84009766 -20.89914062 72.87941406 -20 72.91992188 C-18.73349609 72.98276367 -18.73349609 72.98276367 -17.44140625 73.046875 C-16.27883301 73.10186157 -16.27883301 73.10186157 -15.09277344 73.15795898 C-12.93703365 73.3593114 -10.9765165 73.78057422 -8.89453125 74.36328125 C-9.31798009 81.96183549 -11.46520645 87.87301727 -14.51953125 94.80078125 C-15.37275914 96.75482548 -16.21948449 98.71172645 -17.05859375 100.671875 C-17.4345166 101.52579834 -17.81043945 102.37972168 -18.19775391 103.25952148 C-19.17688652 105.38669623 -19.17688652 105.38669623 -17.89453125 107.36328125 C-11.71978322 100.74995299 -5.75158119 94.06296249 -0.07421875 87.01171875 C2.08304274 84.39053006 4.31857875 81.87173844 6.60546875 79.36328125 C12.09640505 73.33193645 17.57549368 67.15824386 22.10546875 60.36328125 C21.48502686 60.34346191 20.86458496 60.32364258 20.2253418 60.30322266 C17.41412338 60.2079628 14.60364709 60.09828823 11.79296875 59.98828125 C10.81650391 59.95734375 9.84003906 59.92640625 8.83398438 59.89453125 C7.89619141 59.85585938 6.95839844 59.8171875 5.9921875 59.77734375 C5.12811279 59.74592285 4.26403809 59.71450195 3.3737793 59.68212891 C1.10546875 59.36328125 1.10546875 59.36328125 -1.89453125 57.36328125 C-3.1373538 51.27999193 0.30579439 46.97270112 3.41796875 42.05078125 C3.95325195 41.18155029 4.48853516 40.31231934 5.04003906 39.41674805 C9.19314849 32.70848865 13.45993281 26.068688 17.80200195 19.48120117 C20.06938615 16.63405686 20.06938615 16.63405686 21.10546875 13.36328125 C13.18546875 13.36328125 5.26546875 13.36328125 -2.89453125 13.36328125 Z M-19.89453125 107.36328125 C-18.89453125 109.36328125 -18.89453125 109.36328125 -18.89453125 109.36328125 Z " fill="#2462EB" transform="translate(315.89453125,220.63671875)"/>
<path d="M0 0 C0.81596146 -0.00845947 1.63192291 -0.01691895 2.47261047 -0.02563477 C3.80989449 -0.01652573 3.80989449 -0.01652573 5.17419434 -0.00723267 C6.11590988 -0.01248962 7.05762543 -0.01774658 8.02787781 -0.02316284 C11.14647925 -0.03638659 14.26457191 -0.02761624 17.38317871 -0.01748657 C19.5464691 -0.01950662 21.70975882 -0.02241748 23.87304688 -0.02618408 C28.40920488 -0.03061066 32.9451858 -0.02416555 37.48132324 -0.01016235 C43.30245306 0.00692959 49.12316795 -0.00290979 54.94428253 -0.02087975 C59.41203958 -0.0317085 63.8796979 -0.0282754 68.34745789 -0.02049637 C70.49411569 -0.01849185 72.64078239 -0.02096242 74.78742981 -0.02793503 C77.78508327 -0.03553446 80.78206016 -0.02396625 83.77966309 -0.00723267 C84.67118576 -0.01330536 85.56270844 -0.01937805 86.48124695 -0.02563477 C87.70518913 -0.01294556 87.70518913 -0.01294556 88.95385742 0 C89.66250694 0.00113108 90.37115646 0.00226215 91.10128021 0.00342751 C93.56864132 0.5000486 94.45528876 1.40753457 95.97692871 3.38095093 C96.47692871 6.31845093 96.47692871 6.31845093 95.97692871 9.38095093 C93.16152866 12.48302089 90.92666239 13.62906763 86.83396912 13.88215637 C85.17073163 13.90280792 83.50713136 13.90147373 81.84387207 13.88265991 C80.93273148 13.8880629 80.02159088 13.89346588 79.08283997 13.89903259 C76.07715169 13.91151954 73.07242124 13.89503018 70.06677246 13.87704468 C67.97599741 13.87719965 65.88522208 13.87868838 63.79444885 13.88145447 C59.41561157 13.8828384 55.03710185 13.87028001 50.6583252 13.84750366 C45.04359161 13.81910169 39.42940157 13.82186129 33.81462765 13.83459377 C29.49865571 13.84154564 25.18280959 13.83376755 20.86685371 13.82133675 C18.79638717 13.81681871 16.72590715 13.81648851 14.65543938 13.82040215 C11.763541 13.82330995 8.87239426 13.80682841 5.98059082 13.78500366 C4.69549118 13.79175613 4.69549118 13.79175613 3.38442993 13.79864502 C-0.09638308 13.75496024 -2.43062198 13.68624458 -5.55845642 12.07444763 C-7.02307129 10.38095093 -7.02307129 10.38095093 -7.46057129 6.88095093 C-7.02307129 3.38095093 -7.02307129 3.38095093 -5.74716949 1.68601036 C-3.65075485 0.09912529 -2.60743383 0.00416173 0 0 Z " fill="#2463EB" transform="translate(22.0230712890625,195.61904907226563)"/>
<path d="M0 0 C0.64604187 -0.00686325 1.29208374 -0.0137265 1.95770264 -0.02079773 C4.08734287 -0.03905716 6.21624576 -0.03522974 8.34594727 -0.02954102 C9.83041116 -0.03410344 11.31487295 -0.0394092 12.79933167 -0.04542542 C15.90878893 -0.05435491 19.01798934 -0.05193562 22.12744141 -0.04199219 C26.10672894 -0.03050546 30.08512868 -0.05070913 34.06429958 -0.07990932 C37.12959906 -0.09828126 40.1946862 -0.09797692 43.26002693 -0.0922718 C44.72680977 -0.09211869 46.19360709 -0.09815472 47.66033745 -0.11056328 C49.714224 -0.12549077 51.7664761 -0.11478645 53.8203125 -0.09765625 C54.98739243 -0.09749008 56.15447235 -0.09732391 57.35691833 -0.09715271 C61.14856681 0.51235158 62.84782086 1.6317622 65.47485352 4.40405273 C65.40598486 8.39843448 65.34343062 10.53547563 62.47485352 13.40405273 C59.59706116 13.66474915 59.59706116 13.66474915 55.86962891 13.67871094 C55.19140579 13.68382187 54.51318268 13.6889328 53.81440735 13.69419861 C51.56701899 13.70812621 49.31993622 13.70713548 47.07250977 13.70483398 C45.51313665 13.70871931 43.95376459 13.71305363 42.39439392 13.71781921 C39.12340873 13.72528831 35.85253146 13.72498528 32.58154297 13.71972656 C28.38693154 13.7139322 24.1927617 13.73085843 19.9982233 13.75407124 C16.77690543 13.76879392 13.55569424 13.76968228 10.33434868 13.76656151 C8.78776614 13.7670755 7.24117776 13.77232789 5.69462776 13.78237343 C3.53261653 13.7946921 1.37146975 13.78797456 -0.79052734 13.77636719 C-2.6367997 13.77731133 -2.6367997 13.77731133 -4.52037048 13.77827454 C-7.52514648 13.40405273 -7.52514648 13.40405273 -9.41871643 12.09953308 C-11.31156812 9.1989495 -10.9424481 6.74246569 -10.52514648 3.40405273 C-7.31892854 0.05138496 -4.49949529 0.02084458 0 0 Z " fill="#2463EA" transform="translate(27.525146484375,279.595947265625)"/>
<path d="M0 0 C1.57183044 -0.01418472 1.57183044 -0.01418472 3.17541504 -0.02865601 C4.86459045 -0.01954697 4.86459045 -0.01954697 6.58789062 -0.01025391 C8.32975647 -0.01455917 8.32975647 -0.01455917 10.10681152 -0.01895142 C12.56128426 -0.02099234 15.01577325 -0.01546055 17.47021484 -0.00292969 C21.22986172 0.01312263 24.98843349 -0.0027784 28.74804688 -0.02197266 C31.13216383 -0.01999023 33.51628012 -0.01614657 35.90039062 -0.01025391 C37.02650757 -0.0163266 38.15262451 -0.02239929 39.31286621 -0.02865601 C40.36075317 -0.01919952 41.40864014 -0.00974304 42.48828125 0 C43.86916931 0.00358017 43.86916931 0.00358017 45.2779541 0.00723267 C48.22415172 0.46233073 49.59028516 1.35674955 51.74414062 3.38818359 C52.78253762 6.28086094 52.97943064 7.73661124 51.93164062 10.63818359 C50.74414062 12.38818359 50.74414062 12.38818359 48.74414062 13.38818359 C47.00377413 13.49406963 45.25941 13.53696153 43.51586914 13.54931641 C42.42456192 13.55892395 41.3332547 13.56853149 40.20887756 13.57843018 C39.02555344 13.58268005 37.84222931 13.58692993 36.62304688 13.59130859 C35.41220932 13.59700867 34.20137177 13.60270874 32.95384216 13.60858154 C30.38907752 13.61804063 27.82430068 13.62456912 25.25952148 13.62841797 C21.32644601 13.63813466 17.39389047 13.66915494 13.4609375 13.70068359 C10.97331041 13.70721225 8.48567956 13.71246326 5.99804688 13.71630859 C4.22609703 13.7348288 4.22609703 13.7348288 2.41835022 13.75372314 C0.77666115 13.7492215 0.77666115 13.7492215 -0.89819336 13.74462891 C-2.34475563 13.75009735 -2.34475563 13.75009735 -3.82054138 13.75567627 C-6.25585938 13.38818359 -6.25585938 13.38818359 -8.06336975 12.08465576 C-10.08191452 9.21301231 -9.67763981 6.76242706 -9.25585938 3.38818359 C-6.30807595 0.44797243 -4.08474211 0.01059034 0 0 Z " fill="#2463EA" transform="translate(64.255859375,375.61181640625)"/>
</svg>
